<?xml version="1.0" encoding="UTF-8" standalone="no"?>
<!DOCTYPE svg PUBLIC "-//W3C//DTD SVG 1.1//EN" "http://www.w3.org/Graphics/SVG/1.1/DTD/svg11.dtd">
<!-- Generated by Microsoft Visio, SVG Export logical-projection.svg Azure Architecture -->
<svg xmlns="http://www.w3.org/2000/svg" xmlns:xlink="http://www.w3.org/1999/xlink" xmlns:ev="http://www.w3.org/2001/xml-events"
		xmlns:v="http://schemas.microsoft.com/visio/2003/SVGExtensions/" width="21.2813in" height="11.6624in"
		viewBox="0 0 1532.25 839.692" xml:space="preserve" color-interpolation-filters="sRGB" class="st70">
	<v:documentProperties v:langID="1033" v:viewMarkup="false">
		<v:userDefs>
			<v:ud v:nameU="msvNoAutoConnect" v:prompt="" v:val="VT0(0):26"/>
			<v:ud v:nameU="msvWarnOnPersonalInfo" v:val="VT0(1):5"/>
		</v:userDefs>
	</v:documentProperties>

	<style type="text/css">
	<![CDATA[
		.st1 {fill:#ffffff;stroke:none;stroke-linecap:round;stroke-linejoin:round;stroke-width:2.25}
		.st2 {fill:#ffffff;stroke:#000000;stroke-linecap:round;stroke-linejoin:round;stroke-width:0.5}
		.st3 {fill:#107c10;stroke:none;stroke-linecap:round;stroke-linejoin:round;stroke-width:2.24999}
		.st4 {fill:#ffffff;font-family:Segoe UI;font-size:1.16666em;font-weight:bold}
		.st5 {fill:none;stroke:none;stroke-linecap:round;stroke-linejoin:round;stroke-width:2.25}
		.st6 {fill:#000000;font-family:Segoe UI;font-size:1.5em;font-weight:bold}
		.st7 {fill:#225086;stroke:none;stroke-linecap:butt;stroke-width:0.75}
		.st8 {fill:#66ddff;stroke:none;stroke-linecap:butt;stroke-width:0.75}
		.st9 {fill:#cbf8ff;stroke:none;stroke-linecap:butt;stroke-width:0.75}
		.st10 {fill:#074793;stroke:none;stroke-linecap:butt;stroke-width:0.75}
		.st11 {fill:#0294e4;stroke:none;stroke-linecap:butt;stroke-width:0.75}
		.st12 {fill:#96bcc2;stroke:none;stroke-linecap:butt;stroke-width:0.75}
		.st13 {fill:url(#grad0-46);stroke:none;stroke-linecap:butt;stroke-width:0.75}
		.st14 {fill:#0078d4;stroke:none;stroke-linecap:butt;stroke-width:0.75}
		.st15 {fill:#f2f2f2;stroke:none;stroke-linecap:butt;stroke-width:0.75}
		.st16 {fill:#e6e6e6;stroke:none;stroke-linecap:butt;stroke-width:0.75}
		.st17 {fill:#773adc;stroke:none;stroke-linecap:butt;stroke-width:0.75}
		.st18 {fill:#341a6e;stroke:none;stroke-linecap:butt;stroke-width:0.75}
		.st19 {fill:url(#grad0-65);stroke:none;stroke-linecap:butt;stroke-width:0.75}
		.st20 {fill:#552f99;stroke:none;stroke-linecap:butt;stroke-width:0.75}
		.st21 {fill:#ffffff;stroke:none;stroke-linecap:butt;stroke-width:0.75}
		.st22 {fill:#949494;stroke:none;stroke-linecap:butt;stroke-width:0.75}
		.st23 {fill:#a3a3a3;stroke:none;stroke-linecap:butt;stroke-width:0.75}
		.st24 {fill:#32bedd;stroke:none;stroke-linecap:butt;stroke-width:0.75}
		.st25 {fill:#9cebff;stroke:none;stroke-linecap:butt;stroke-width:0.75}
		.st26 {fill:#50e6ff;stroke:none;stroke-linecap:butt;stroke-width:0.75}
		.st27 {fill:url(#grad0-102);stroke:none;stroke-linecap:butt;stroke-width:0.75}
		.st28 {fill:url(#grad0-108);stroke:none;stroke-linecap:butt;stroke-width:0.75}
		.st29 {fill:url(#grad0-114);stroke:none;stroke-linecap:butt;stroke-width:0.75}
		.st30 {fill:#198ab3;stroke:none;stroke-linecap:butt;stroke-width:0.75}
		.st31 {fill:url(#grad0-138);stroke:none;stroke-linecap:butt;stroke-width:0.75}
		.st32 {fill:#c3f1ff;stroke:none;stroke-linecap:butt;stroke-width:0.75}
		.st33 {fill:#0078d4;stroke:none;stroke-linecap:butt;stroke-width:15.6923}
		.st34 {fill:#50e6ff;stroke:none;stroke-linecap:butt;stroke-width:15.6923}
		.st35 {fill:url(#grad0-163);stroke:none;stroke-linecap:butt;stroke-width:0.75}
		.st36 {fill:#b3b3b3;stroke:none;stroke-linecap:butt;stroke-width:0.75}
		.st37 {fill:#005ba1;stroke:none;stroke-linecap:butt;stroke-width:34}
		.st38 {fill:#ffffff;stroke:none;stroke-linecap:butt;stroke-width:34}
		.st39 {fill:url(#grad0-188);stroke:none;stroke-linecap:butt;stroke-width:34}
		.st40 {fill:#a0a1a2;stroke:none;stroke-linecap:butt;stroke-width:12.24}
		.st41 {fill:#7a7a7a;stroke:none;stroke-linecap:butt;stroke-width:12.24}
		.st42 {fill:#0072c6;stroke:none;stroke-linecap:butt;stroke-width:12.24}
		.st43 {fill:#ffffff;stroke:none;stroke-linecap:butt;stroke-width:12.24}
		.st44 {fill:#ffffff;fill-opacity:0.2;stroke:none;stroke-linecap:butt;stroke-width:12.24}
		.st45 {fill:#198ab3;stroke:none;stroke-linecap:butt;stroke-width:34}
		.st46 {fill:url(#grad6-212);stroke:none;stroke-linecap:butt;stroke-width:34}
		.st47 {fill:#50e6ff;stroke:none;stroke-linecap:butt;stroke-width:34}
		.st48 {fill:#76bc2d;stroke:none;stroke-linecap:butt;stroke-width:34}
		.st49 {fill:#003067;stroke:none;stroke-linecap:butt;stroke-width:0.75}
		.st50 {fill:#005ba1;stroke:none;stroke-linecap:butt;stroke-width:0.75}
		.st51 {fill:#5ea0ef;stroke:none;stroke-linecap:butt;stroke-width:0.75}
		.st52 {fill:#0076d2;stroke:none;stroke-linecap:butt;stroke-width:10.2}
		.st53 {fill:#ffffff;stroke:none;stroke-linecap:butt;stroke-width:10.2}
		.st54 {fill:#b8d432;stroke:none;stroke-linecap:butt;stroke-width:10.2}
		.st55 {fill:url(#grad7-281);stroke:none;stroke-linecap:butt;stroke-width:0.75}
		.st56 {fill:#ffffff;fill-opacity:0.6;stroke:none;stroke-linecap:butt;stroke-width:0.75}
		.st57 {fill:#f2f2f2;fill-opacity:0.55;stroke:none;stroke-linecap:butt;stroke-width:0.75}
		.st58 {fill:url(#grad0-291);stroke:none;stroke-linecap:butt;stroke-width:0.75}
		.st59 {fill:url(#grad0-299);stroke:none;stroke-linecap:butt;stroke-width:0.75}
		.st60 {fill:#f2f2f2;fill-opacity:0.7;stroke:none;stroke-linecap:butt;stroke-width:0.75}
		.st61 {font-size:1em}
		.st62 {fill:#000000;font-family:Segoe UI;font-size:1.33333em;font-weight:bold}
		.st63 {fill:#00b0f0;font-family:Segoe UI;font-size:1.33333em;font-weight:bold}
		.st64 {marker-end:url(#mrkr13-359);stroke:#000000;stroke-linecap:round;stroke-linejoin:round;stroke-width:1.5}
		.st65 {fill:#000000;fill-opacity:1;stroke:#000000;stroke-opacity:1;stroke-width:0.37313432835821}
		.st66 {marker-end:url(#mrkr13-359);marker-start:url(#mrkr13-371);stroke:#000000;stroke-linecap:round;stroke-linejoin:round;stroke-width:1.5}
		.st67 {stroke:#000000;stroke-linecap:round;stroke-linejoin:round;stroke-width:0.5}
		.st68 {fill:#000000;font-family:Segoe UI;font-size:1.5em}
		.st69 {fill:#000000;font-family:Segoe UI;font-size:3em;font-weight:bold}
		.st70 {fill:none;fill-rule:evenodd;font-size:12px;overflow:visible;stroke-linecap:square;stroke-miterlimit:3}
	]]>
	</style>

	<defs id="Patterns_And_Gradients">
		<linearGradient id="grad0-46" x1="0" y1="0" x2="1" y2="0" gradientTransform="rotate(-90 0.5 0.5)">
			<stop offset="0" stop-color="#32bedd" stop-opacity="1"/>
			<stop offset="0.175" stop-color="#32caea" stop-opacity="1"/>
			<stop offset="0.41" stop-color="#32d2f2" stop-opacity="1"/>
			<stop offset="0.775" stop-color="#32d4f5" stop-opacity="1"/>
		</linearGradient>
		<linearGradient id="grad0-65" x1="0" y1="0" x2="1" y2="0" gradientTransform="rotate(90 0.5 0.5)">
			<stop offset="0" stop-color="#c69aeb" stop-opacity="1"/>
			<stop offset="1" stop-color="#6f4bb2" stop-opacity="1"/>
		</linearGradient>
		<linearGradient id="grad0-102" x1="0" y1="0" x2="1" y2="0" gradientTransform="rotate(-90 0.5 0.5)">
			<stop offset="0" stop-color="#0078d4" stop-opacity="1"/>
			<stop offset="0.5" stop-color="#4093e6" stop-opacity="1"/>
			<stop offset="0.775" stop-color="#5ea0ef" stop-opacity="1"/>
		</linearGradient>
		<linearGradient id="grad0-108" x1="0" y1="0" x2="1" y2="0" gradientTransform="rotate(44.919 0.5 0.5)">
			<stop offset="0" stop-color="#5ea0ef" stop-opacity="1"/>
			<stop offset="0.37" stop-color="#9fc6f5" stop-opacity="1"/>
			<stop offset="0.8" stop-color="#e4effc" stop-opacity="1"/>
			<stop offset="1" stop-color="#ffffff" stop-opacity="1"/>
		</linearGradient>
		<linearGradient id="grad0-114" x1="0" y1="0" x2="1" y2="0" gradientTransform="rotate(135.081 0.5 0.5)">
			<stop offset="0" stop-color="#ffffff" stop-opacity="1"/>
			<stop offset="0.2" stop-color="#e4effc" stop-opacity="1"/>
			<stop offset="0.63" stop-color="#9fc6f5" stop-opacity="1"/>
			<stop offset="1" stop-color="#5ea0ef" stop-opacity="1"/>
		</linearGradient>
		<linearGradient id="grad0-138" x1="0" y1="0" x2="1" y2="0" gradientTransform="rotate(-90 0.5 0.5)">
			<stop offset="0" stop-color="#773adc" stop-opacity="1"/>
			<stop offset="1" stop-color="#a67af4" stop-opacity="1"/>
		</linearGradient>
		<linearGradient id="grad0-163" x1="0" y1="0" x2="1" y2="0" gradientTransform="rotate(-90 0.5 0.5)">
			<stop offset="0" stop-color="#198ab3" stop-opacity="1"/>
			<stop offset="0.16" stop-color="#1f9ac2" stop-opacity="1"/>
			<stop offset="0.5" stop-color="#29bade" stop-opacity="1"/>
			<stop offset="0.8" stop-color="#30cdef" stop-opacity="1"/>
			<stop offset="1" stop-color="#32d4f5" stop-opacity="1"/>
		</linearGradient>
		<linearGradient id="grad0-188" x1="0" y1="0" x2="1" y2="0" gradientTransform="rotate(-90 0.5 0.5)">
			<stop offset="0" stop-color="#1988d9" stop-opacity="1"/>
			<stop offset="0.9" stop-color="#54aef0" stop-opacity="1"/>
		</linearGradient>
		<radialGradient id="grad6-212" cx="1" cy="0" r="1.4">
			<stop offset="0" stop-color="#5ea0ef" stop-opacity="1"/>
			<stop offset="0.28" stop-color="#5b9fee" stop-opacity="1"/>
			<stop offset="0.47" stop-color="#529bec" stop-opacity="1"/>
			<stop offset="0.64" stop-color="#4394e7" stop-opacity="1"/>
			<stop offset="0.79" stop-color="#2d8be1" stop-opacity="1"/>
			<stop offset="0.93" stop-color="#117fd9" stop-opacity="1"/>
			<stop offset="1" stop-color="#0078d4" stop-opacity="1"/>
		</radialGradient>
		<radialGradient id="grad7-281" cx="0" cy="0" r="1.4">
			<stop offset="0.18" stop-color="#5ea0ef" stop-opacity="1"/>
			<stop offset="1" stop-color="#0078d4" stop-opacity="1"/>
		</radialGradient>
		<linearGradient id="grad0-291" x1="0" y1="0" x2="1" y2="0" gradientTransform="rotate(-90.435149452297 0.5 0.5)">
			<stop offset="0" stop-color="#cccccc" stop-opacity="1"/>
			<stop offset="1" stop-color="#fcfcfc" stop-opacity="1"/>
		</linearGradient>
		<linearGradient id="grad0-299" x1="0" y1="0" x2="1" y2="0" gradientTransform="rotate(-90 0.5 0.5)">
			<stop offset="0" stop-color="#cccccc" stop-opacity="1"/>
			<stop offset="1" stop-color="#fcfcfc" stop-opacity="1"/>
		</linearGradient>
	</defs>
	<defs id="Markers">
		<g id="lend13">
			<path d="M 3 1 L 0 0 L 3 -1 L 3 1 " style="stroke:none"/>
		</g>
		<marker id="mrkr13-359" class="st65" v:arrowType="13" v:arrowSize="2" v:setback="8.04" refX="-8.04" orient="auto"
				markerUnits="strokeWidth" overflow="visible">
			<use xlink:href="#lend13" transform="scale(-2.68,-2.68) "/>
		</marker>
		<marker id="mrkr13-371" class="st65" v:arrowType="13" v:arrowSize="2" v:setback="7.8" refX="7.8" orient="auto"
				markerUnits="strokeWidth" overflow="visible">
			<use xlink:href="#lend13" transform="scale(2.68) "/>
		</marker>
	</defs>
	<g v:mID="15" v:index="1" v:groupContext="backgroundPage">
		<v:userDefs>
			<v:ud v:nameU="msvThemeOrder" v:val="VT0(0):26"/>
			<v:ud v:nameU="msvVisioCreated" v:prompt="" v:val="VT0(0):26"/>
		</v:userDefs>
		<title>VBackground-1</title>
		<v:pageProperties width="21.2813" height="11.6624" v:drawingScale="1" v:pageScale="1" v:drawingUnits="0"
				v:shadowOffsetX="9" v:shadowOffsetY="-9"/>
		<g id="shape1-1" v:mID="1" v:groupContext="shape">
			<title>Solid</title>
			<v:userDefs>
				<v:ud v:nameU="Background" v:val="VT0(0):26"/>
				<v:ud v:nameU="visVersion" v:val="VT0(15):26"/>
				<v:ud v:nameU="msvShapeCategories" v:prompt="" v:val="VT4(DoNotContain)"/>
				<v:ud v:nameU="msvVisioCreated" v:prompt="" v:val="VT0(0):26"/>
			</v:userDefs>
			<rect x="0" y="0" width="1532.25" height="839.692" class="st1"/>
		</g>
	</g>
	<g v:mID="11" v:index="2" v:groupContext="foregroundPage">
		<v:userDefs>
			<v:ud v:nameU="msvThemeOrder" v:val="VT0(0):26"/>
			<v:ud v:nameU="visNavType" v:val="VT0(1):26"/>
		</v:userDefs>
		<title>how-microsoft-entra-private-accessworks</title>
		<v:pageProperties v:drawingScale="1" v:pageScale="1" v:drawingUnits="0" v:shadowOffsetX="9" v:shadowOffsetY="-9"/>
		<v:layer v:name="Container" v:index="0"/>
		<v:layer v:name="Connector" v:index="1"/>
		<v:layer v:name="Annotations" v:index="2"/>
		<g id="shape3240-3" v:mID="3240" v:groupContext="shape" transform="translate(397.125,-179.992)">
			<title>Sheet.3240</title>
			<v:userDefs>
				<v:ud v:nameU="visNavOrder" v:val="VT0(651000):26"/>
			</v:userDefs>
			<rect x="0" y="497.692" width="450" height="342" class="st2"/>
		</g>
		<g id="shape3238-5" v:mID="3238" v:groupContext="shape" transform="translate(64.125,-51.7421)">
			<title>Sheet.3238</title>
			<v:userDefs>
				<v:ud v:nameU="visNavOrder" v:val="VT0(650000):26"/>
			</v:userDefs>
			<rect x="0" y="265.942" width="234" height="573.75" class="st2"/>
		</g>
		<g id="shape1016-7" v:mID="1016" v:groupContext="shape" transform="translate(65.25,-670.492)">
			<title>Sheet.1016</title>
			<desc>1</desc>
			<v:userDefs>
				<v:ud v:nameU="visNavOrder" v:val="VT0(176000):26"/>
			</v:userDefs>
			<v:textBlock v:margins="rect(3.99997,3.99997,3.99997,3.99997)"/>
			<v:textRect cx="16.875" cy="822.817" width="33.75" height="33.75"/>
			<ellipse cx="16.875" cy="822.817" rx="16.875" ry="16.875" class="st3"/>
			<text x="12.85" y="827.02" class="st4" v:langID="1033"><v:paragraph v:horizAlign="1"/><v:tabList/>1</text>		</g>
		<g id="shape1017-10" v:mID="1017" v:groupContext="shape" transform="translate(447.75,-670.492)">
			<title>Sheet.1017</title>
			<desc>2</desc>
			<v:userDefs>
				<v:ud v:nameU="visNavOrder" v:val="VT0(177000):26"/>
			</v:userDefs>
			<v:textBlock v:margins="rect(3.99997,3.99997,3.99997,3.99997)"/>
			<v:textRect cx="16.875" cy="822.817" width="33.75" height="33.75"/>
			<ellipse cx="16.875" cy="822.817" rx="16.875" ry="16.875" class="st3"/>
			<text x="12.85" y="827.02" class="st4" v:langID="1033"><v:paragraph v:horizAlign="1"/><v:tabList/>2</text>		</g>
		<g id="shape1018-13" v:mID="1018" v:groupContext="shape" transform="translate(871.587,-670.492)">
			<title>Sheet.1018</title>
			<desc>3</desc>
			<v:userDefs>
				<v:ud v:nameU="visNavOrder" v:val="VT0(178000):26"/>
			</v:userDefs>
			<v:textBlock v:margins="rect(3.99997,3.99997,3.99997,3.99997)"/>
			<v:textRect cx="16.875" cy="822.817" width="33.75" height="33.75"/>
			<ellipse cx="16.875" cy="822.817" rx="16.875" ry="16.875" class="st3"/>
			<text x="12.85" y="827.02" class="st4" v:langID="1033"><v:paragraph v:horizAlign="1"/><v:tabList/>3</text>		</g>
		<g id="shape2456-16" v:mID="2456" v:groupContext="shape" transform="translate(1202.63,-670.492)">
			<title>Sheet.2456</title>
			<desc>4</desc>
			<v:userDefs>
				<v:ud v:nameU="visNavOrder" v:val="VT0(425000):26"/>
			</v:userDefs>
			<v:textBlock v:margins="rect(3.99997,3.99997,3.99997,3.99997)"/>
			<v:textRect cx="16.875" cy="822.817" width="33.75" height="33.75"/>
			<ellipse cx="16.875" cy="822.817" rx="16.875" ry="16.875" class="st3"/>
			<text x="12.85" y="827.02" class="st4" v:langID="1033"><v:paragraph v:horizAlign="1"/><v:tabList/>4</text>		</g>
		<g id="shape2545-19" v:mID="2545" v:groupContext="shape" transform="translate(937.125,-40.4921)">
			<title>Sheet.2545</title>
			<desc>Microsoft Entra ID</desc>
			<v:userDefs>
				<v:ud v:nameU="visNavOrder" v:val="VT0(458000):26"/>
			</v:userDefs>
			<v:textBlock v:margins="rect(4,4,4,4)"/>
			<v:textRect cx="90" cy="821.692" width="180" height="36"/>
			<rect x="0" y="803.692" width="180" height="36" class="st5"/>
			<text x="12.4" y="827.09" class="st6" v:langID="1033"><v:paragraph v:horizAlign="1"/><v:tabList/>Microsoft Entra ID</text>		</g>
		<g id="shape3012-22" v:mID="3012" v:groupContext="shape" transform="translate(109.125,-490.492)">
			<title>Sheet.3012</title>
			<desc>CLI</desc>
			<v:userDefs>
				<v:ud v:nameU="visNavOrder" v:val="VT0(600000):26"/>
			</v:userDefs>
			<v:textBlock v:margins="rect(4,4,4,4)"/>
			<v:textRect cx="66.375" cy="821.692" width="132.75" height="36"/>
			<rect x="0" y="803.692" width="132.75" height="36" class="st5"/>
			<text x="53.31" y="827.09" class="st6" v:langID="1033"><v:paragraph v:horizAlign="1"/><v:tabList/>CLI</text>		</g>
		<g id="shape3054-25" v:mID="3054" v:groupContext="shape" transform="translate(928.125,-292.472)">
			<title>Sheet.3054</title>
			<desc>Managed Services RP</desc>
			<v:userDefs>
				<v:ud v:nameU="visNavOrder" v:val="VT0(611000):26"/>
			</v:userDefs>
			<v:textBlock v:margins="rect(4,4,4,4)" v:verticalAlign="0"/>
			<v:textRect cx="103.5" cy="827.325" width="207" height="24.7342"/>
			<rect x="0" y="814.958" width="207" height="24.7342" class="st5"/>
			<text x="13.29" y="835.16" class="st6" v:langID="1033"><v:paragraph v:horizAlign="1"/><v:tabList/>Managed Services RP</text>		</g>
		<g id="group3069-28" transform="translate(956.25,-77.5882)" v:mID="3069" v:groupContext="group">
			<v:userDefs>
				<v:ud v:nameU="visNavOrder" v:val="VT0(619000):26"/>
			</v:userDefs>
			<title>Sheet.3069</title>
			<g id="shape3070-29" v:mID="3070" v:groupContext="shape" transform="translate(31.4346,0)">
				<title>Sheet.3070</title>
				<path d="M0 816.53 C3.03 818.42 8.06 820.52 13.38 820.52 C18.23 820.52 22.73 819.11 26.46 816.72 C26.46 816.72 26.47
							 816.72 26.48 816.71 L40.57 807.91 L40.57 839.69 C38.33 839.69 36.09 839.08 34.13 837.87 L0 816.53 Z"
						class="st7"/>
			</g>
			<g id="shape3071-31" v:mID="3071" v:groupContext="shape" transform="translate(0,-19.1745)">
				<title>Sheet.3071</title>
				<path d="M63.05 737.96 L4.52 803.98 C0 809.08 1.18 816.79 7.04 820.46 C7.04 820.46 28.7 834 31.43 835.7 C34.46 837.59
							 39.5 839.69 44.82 839.69 C49.66 839.69 54.17 838.29 57.9 835.89 C57.9 835.89 57.91 835.89 57.91 835.88
							 L72 827.08 L37.94 805.79 L72.01 767.36 L72.01 734 C72.01 734 72.01 734 72.01 734 C68.7 734 65.4 735.32
							 63.06 737.96 L63.05 737.96 Z" class="st8"/>
			</g>
			<g id="shape3072-33" v:mID="3072" v:groupContext="shape" transform="translate(37.9432,-31.7858)">
				<title>Sheet.3072</title>
				<path d="M0 818.4 L0.41 818.65 L34.06 839.69 L34.06 839.69 L34.06 779.98 L34.06 779.98 L0 818.4 Z" class="st9"/>
			</g>
			<g id="shape3073-35" v:mID="3073" v:groupContext="shape" transform="translate(72.0078,-0.00780403)">
				<title>Sheet.3073</title>
				<path d="M64.95 801.29 C70.81 797.63 71.99 789.92 67.47 784.81 L29.07 741.49 C25.97 740.05 22.5 739.22 18.82 739.22
							 C11.6 739.22 5.15 742.34 0.86 747.23 L0.01 748.19 C0.01 748.19 34.06 786.62 34.06 786.62 C34.06 786.62
							 34.06 786.62 34.06 786.62 L0 807.91 L0 839.69 C2.24 839.69 4.47 839.08 6.42 837.87 L64.95 801.28 L64.95
							 801.29 Z" class="st10"/>
			</g>
			<g id="shape3074-37" v:mID="3074" v:groupContext="shape" transform="translate(72,-91.5023)">
				<title>Sheet.3074</title>
				<path d="M0.01 806.33 L0.01 839.69 C0.01 839.69 0.86 838.73 0.86 838.73 C5.15 833.84 11.6 830.73 18.82 830.73 C22.51
							 830.73 25.97 831.56 29.07 833 L8.94 810.29 C6.61 807.66 3.3 806.34 0 806.34 L0.01 806.33 Z"
						class="st11"/>
			</g>
			<g id="shape3075-39" v:mID="3075" v:groupContext="shape" transform="translate(72.0078,-31.7936)">
				<title>Sheet.3075</title>
				<path d="M34.06 818.41 L0 779.99 L0 839.69 L34.06 818.41 Z" class="st12"/>
			</g>
		</g>
		<g id="group3087-41" transform="translate(102.681,-347.418)" v:mID="3087" v:groupContext="group">
			<v:userDefs>
				<v:ud v:nameU="visNavOrder" v:val="VT0(622000):26"/>
			</v:userDefs>
			<title>MsPortalFx.base.images-10</title>
			<g id="group3088-42" v:mID="3088" v:groupContext="group">
				<title>Sheet.3088</title>
				<g id="shape3089-43" v:mID="3089" v:groupContext="shape" transform="translate(27.9829,-40.0871)">
					<title>Sheet.3089</title>
					<path d="M2.65 786.36 L92.9 786.36 L92.9 836.68 A3.01542 3.01542 0 0 1 89.89 839.69 L5.67 839.69 A3.01542 3.01542
								 0 0 1 2.65 836.68 L2.65 786.36 Z" class="st13"/>
				</g>
				<g id="shape3090-47" v:mID="3090" v:groupContext="shape" transform="translate(27.9829,-93.4198)">
					<title>Sheet.3090</title>
					<path d="M5.69 820.46 L89.87 820.46 A3.01542 3.01542 0 0 1 92.89 823.48 L92.89 839.69 L2.65 839.69 L2.65 823.48
								 A3.01542 3.01542 0 0 1 5.69 820.46 Z" class="st14"/>
				</g>
				<g id="shape3091-49" v:mID="3091" v:groupContext="shape" transform="translate(-551.311,197.468) rotate(-45.081)">
					<title>Sheet.3091</title>
					<path d="M22.79 816.55 L25.56 816.55 a0.886577 0.886577 0 0 1 0.886577 0.886577 L26.45 837.91 A1.77846 1.77846
								 0 0 1 24.67 839.69 L21.9 839.69 L21.9 817.44 a0.886577 0.886577 0 0 1 0.886577 -0.886577 L22.79
								 816.55 Z" class="st15"/>
				</g>
				<g id="shape3092-51" v:mID="3092" v:groupContext="shape" transform="translate(-515.33,1381.86) rotate(-135.081)">
					<title>Sheet.3092</title>
					<path d="M22.93 816.87 L25.71 816.87 a0.886577 0.886577 0 0 1 0.886577 0.886577 L26.6 839.69 L23.83 839.69 A1.77846
								 1.77846 0 0 1 22.05 837.91 L22.05 817.74 a0.886577 0.886577 0 0 1 0.886577 -0.886577 L22.93 816.87
								 Z" class="st16"/>
				</g>
				<g id="shape3093-53" v:mID="3093" v:groupContext="shape" transform="translate(66.3181,-51.6763)">
					<title>Sheet.3093</title>
					<path d="M0 838.15 A1.54491 1.54491 -180 0 0 1.54 839.69 L23.78 839.69 A1.54491 1.54491 -180 0 0 25.33 838.15
								 L25.33 835.87 A1.54491 1.54491 -180 0 0 23.78 834.32 L1.54 834.32 A1.54491 1.54491 -180 0 0 -0 835.87
								 L0 838.15 Z" class="st15"/>
				</g>
			</g>
		</g>
		<g id="group3094-55" transform="translate(453.75,-359.709)" v:mID="3094" v:groupContext="group">
			<v:userDefs>
				<v:ud v:nameU="visNavOrder" v:val="VT0(623000):26"/>
			</v:userDefs>
			<title>MsPortalFx.base.images-5</title>
			<g id="group3095-56" v:mID="3095" v:groupContext="group">
				<title>Sheet.3095</title>
				<g id="shape3096-57" v:mID="3096" v:groupContext="shape" transform="translate(-2.55795E-13,-10.9575)">
					<title>Sheet.3096</title>
					<path d="M45.39 801.2 L39.21 795.06 A1.55256 1.55256 -180 0 0 38.06 794.61 L26.58 795.03 A1.52289 1.52289 -180
								 0 0 25.56 795.48 L0.45 820.45 A1.52289 1.52289 -180 0 0 0.45 822.61 L17.17 839.24 A1.53278 1.53278
								 -180 0 0 19.34 839.24 L44.48 814.24 A1.50312 1.50312 -180 0 0 44.92 813.29 L45.84 802.41 A1.5196
								 1.5196 -180 0 0 45.39 801.2 ZM37.92 805.28 A2.77879 2.77879 0 1 1 40.72 802.5 A2.78538 2.78538 0
								 0 1 37.92 805.28 Z" class="st17"/>
				</g>
				<g id="shape3097-59" v:mID="3097" v:groupContext="shape" transform="translate(34.4354,-44.6082)">
					<title>Sheet.3097</title>
					<path d="M3.49 831.17 A4.98401 4.98401 -180 1 0 8.5 836.15 A4.9939 4.9939 -180 0 0 3.49 831.17 ZM6.23 836.7 A2.79527
								 2.79527 0 1 1 2.93 833.43 A2.7689 2.7689 0 0 1 6.23 836.7 Z" class="st18"/>
				</g>
				<g id="group3098-61" transform="translate(5.53833,0)" v:mID="3098" v:groupContext="group">
					<title>Sheet.3098</title>
					<g id="shape3099-62" v:mID="3099" v:groupContext="shape">
						<title>Sheet.3099</title>
						<path d="M45.39 801.22 L39.2 795.06 A1.53608 1.53608 -180 0 0 38.06 794.61 L26.58 795.03 A1.55915 1.55915
									 -180 0 0 25.55 795.48 L0.45 820.45 A1.5163 1.5163 -180 0 0 0.45 822.61 L17.19 839.25 A1.53937
									 1.53937 -180 0 0 19.35 839.25 L44.48 814.24 A1.52949 1.52949 -180 0 0 44.92 813.29 L45.84 802.41
									 A1.513 1.513 -180 0 0 45.39 801.22 ZM37.93 805.28 A2.77879 2.77879 0 1 1 40.72 802.51 A2.78867
									 2.78867 0 0 1 37.93 805.28 Z" class="st19"/>
					</g>
					<g id="shape3100-66" v:mID="3100" v:groupContext="shape" transform="translate(34.4325,-33.6535)">
						<title>Sheet.3100</title>
						<path d="M3.49 831.18 A4.98401 4.98401 -180 1 0 8.5 836.16 A4.9972 4.9972 -180 0 0 3.49 831.18 ZM6.23 836.7
									 A2.79527 2.79527 0 1 1 2.94 833.43 A2.77549 2.77549 0 0 1 6.23 836.7 Z" class="st20"/>
					</g>
				</g>
				<g id="shape3101-68" v:mID="3101" v:groupContext="shape" transform="translate(41.4899,-35.1871)">
					<title>Sheet.3101</title>
					<path d="M4.71 838.24 A2.79527 2.79527 0 1 1 1.42 834.97 A2.77549 2.77549 0 0 1 4.71 838.24 Z" class="st21"/>
				</g>
				<g id="shape3102-70" v:mID="3102" v:groupContext="shape" transform="translate(35.9521,-46.1473)">
					<title>Sheet.3102</title>
					<path d="M4.71 838.24 A2.79527 2.79527 0 1 1 1.42 834.97 A2.7689 2.7689 0 0 1 4.71 838.24 Z" class="st21"/>
				</g>
			</g>
		</g>
		<g id="group3103-72" transform="translate(741.75,-362.771)" v:mID="3103" v:groupContext="group">
			<v:userDefs>
				<v:ud v:nameU="visNavOrder" v:val="VT0(624000):26"/>
			</v:userDefs>
			<title>Icon-general-7</title>
			<g id="group3104-73" v:mID="3104" v:groupContext="group">
				<title>Sheet.3104</title>
				<g id="group3105-74" v:mID="3105" v:groupContext="group">
					<title>Sheet.3105</title>
					<g id="shape3106-75" v:mID="3106" v:groupContext="shape">
						<title>Sheet.3106</title>
						<path d="M0 833.84 a0.483529 0.483529 -180 0 0 0.241765 0.423088 L3.75 836.23 L9.67 839.64 a0.51375 0.51375
									 -180 0 0 0.695074 -0.181324 L12.36 836.07 a0.483529 0.483529 -180 0 0 -0.181324 -0.634632 L5.23
									 831.51 a0.51375 0.51375 0 0 1 -0.241765 -0.423088 L4.99 799.9 a0.483529 0.483529 0 0 1 0.241765
									 -0.423088 L12.18 795.55 a0.483529 0.483529 -180 0 0 0.181324 -0.634632 L10.37 791.53 a0.51375
									 0.51375 -180 0 0 -0.695074 -0.241765 L3.87 794.64 L0.24 796.67 a0.483529 0.483529 -180 0 0 -0.241765
									 0.423088 L0 833.84 Z" class="st22"/>
					</g>
					<g id="shape3107-77" v:mID="3107" v:groupContext="shape" transform="translate(0,-40.0328)">
						<title>Sheet.3107</title>
						<path d="M4.96 839.69 L5.14 839.51 L12.09 835.58 a0.423088 0.423088 -180 0 0 0.181324 -0.634632 L10.28 831.56
									 a0.453309 0.453309 -180 0 0 -0.664853 -0.241765 L3.78 834.68 L0.18 836.7 C0.18 836.7 0.03 836.7
									 0 836.88 L2.72 838.42 L4.96 839.69 Z" class="st23"/>
					</g>
					<g id="shape3108-79" v:mID="3108" v:groupContext="shape" transform="translate(0.0302206,-0.109391)">
						<title>Sheet.3108</title>
						<path d="M12.06 835.49 L5.11 831.56 a0.664853 0.664853 0 0 1 -0.211544 -0.271985 L0 834.31 L0.15 834.31 L3.63
									 836.27 L9.67 839.63 a0.453309 0.453309 -180 0 0 0.664853 -0.181324 L12.33 836.06 a0.423088 0.423088
									 -180 0 0 -0.271985 -0.574191 Z" class="st23"/>
					</g>
				</g>
				<g id="shape3109-81" v:mID="3109" v:groupContext="shape" transform="translate(38.9803,0)">
					<title>Sheet.3109</title>
					<path d="M12.39 833.84 a0.483529 0.483529 0 0 1 -0.241765 0.423088 L8.65 836.23 L2.72 839.64 a0.51375 0.51375
								 0 0 1 -0.695074 -0.181324 L0.03 836.07 a0.483529 0.483529 0 0 1 0.181324 -0.634632 L7.17 831.51
								 a0.51375 0.51375 -180 0 0 0.241765 -0.423088 L7.41 799.9 a0.483529 0.483529 -180 0 0 -0.241765 -0.423088
								 L0.22 795.55 a0.483529 0.483529 0 0 1 -0.181324 -0.634632 L2.03 791.53 a0.51375 0.51375 0 0 1 0.695074
								 -0.241765 L8.53 794.58 L12.15 796.61 a0.483529 0.483529 0 0 1 0.241765 0.423088 L12.39 833.84 Z"
							class="st22"/>
				</g>
				<g id="shape3110-83" v:mID="3110" v:groupContext="shape" transform="translate(39.0439,-40.0328)">
					<title>Sheet.3110</title>
					<path d="M7.37 839.69 L7.19 839.51 L0.24 835.58 a0.423088 0.423088 0 0 1 -0.181324 -0.634632 L2.06 831.56 a0.453309
								 0.453309 0 0 1 0.664853 -0.241765 L8.55 834.61 L12.15 836.64 C12.15 836.64 12.15 836.64 12.33 836.82
								 L9.61 838.36 L7.37 839.69 Z" class="st23"/>
				</g>
				<g id="shape3111-85" v:mID="3111" v:groupContext="shape" transform="translate(39.1106,-0.109391)">
					<title>Sheet.3111</title>
					<path d="M0.18 835.49 L7.13 831.56 a0.664853 0.664853 -180 0 0 0.211544 -0.271985 L12.23 834.31 L8.76 836.27
								 L2.71 839.63 a0.453309 0.453309 0 0 1 -0.664853 -0.181324 L0.06 836.06 a0.423088 0.423088 0 0 1
								 0.120882 -0.574191 Z" class="st23"/>
				</g>
				<g id="shape3112-87" v:mID="3112" v:groupContext="shape" transform="translate(25.6573,-5.6116)">
					<title>Sheet.3112</title>
					<path d="M16.08 811.8 L16.08 830.35 L0 839.69 L0 821.11 L16.08 811.8 Z" class="st24"/>
				</g>
				<g id="shape3113-89" v:mID="3113" v:groupContext="shape" transform="translate(9.61015,-24.167)">
					<title>Sheet.3113</title>
					<path d="M32.12 830.35 L16.08 839.69 L0 830.35 L16.08 821.02 L32.12 830.35 Z" class="st25"/>
				</g>
				<g id="shape3114-91" v:mID="3114" v:groupContext="shape" transform="translate(9.61015,-5.6116)">
					<title>Sheet.3114</title>
					<path d="M16.05 821.14 L16.05 839.69 L0 830.35 L0 811.8 L16.05 821.14 Z" class="st26"/>
				</g>
				<g id="shape3115-93" v:mID="3115" v:groupContext="shape" transform="translate(9.61015,-5.6116)">
					<title>Sheet.3115</title>
					<path d="M0 830.35 L16.05 821.11 L16.05 839.69 L0 830.35 Z" class="st25"/>
				</g>
				<g id="shape3116-95" v:mID="3116" v:groupContext="shape" transform="translate(25.6573,-5.6116)">
					<title>Sheet.3116</title>
					<path d="M16.08 830.35 L0 821.11 L0 839.69 L16.08 830.35 Z" class="st26"/>
				</g>
			</g>
		</g>
		<g id="group3117-97" transform="translate(91.6875,-171.414)" v:mID="3117" v:groupContext="group">
			<v:userDefs>
				<v:ud v:nameU="visNavOrder" v:val="VT0(625000):26"/>
			</v:userDefs>
			<title>MsPortalFx.base.images-27</title>
			<g id="group3118-98" v:mID="3118" v:groupContext="group">
				<title>Sheet.3118</title>
				<g id="shape3119-99" v:mID="3119" v:groupContext="shape" transform="translate(36.4878,-70.4198)">
					<title>Sheet.3119</title>
					<path d="M2.74 784.71 L95.78 784.71 L95.78 836.58 A3.10861 3.10861 0 0 1 92.67 839.69 L5.85 839.69 A3.10861 3.10861
								 0 0 1 2.74 836.58 L2.74 784.71 Z" class="st27"/>
				</g>
				<g id="shape3120-103" v:mID="3120" v:groupContext="shape" transform="translate(36.4878,-125.401)">
					<title>Sheet.3120</title>
					<path d="M5.86 819.87 L92.65 819.87 A3.10861 3.10861 0 0 1 95.76 822.98 L95.76 839.69 L2.74 839.69 L2.74 822.98
								 A3.10861 3.10861 0 0 1 5.86 819.87 Z" class="st14"/>
				</g>
				<g id="shape3121-105" v:mID="3121" v:groupContext="shape" transform="translate(-540.135,180.163) rotate(-44.919)">
					<title>Sheet.3121</title>
					<path d="M28.7 817.66 L31.38 817.66 L31.38 838.83 a0.859246 0.859246 0 0 1 -0.859246 0.859246 L27.84 839.69 a0.859246
								 0.859246 0 0 1 -0.859246 -0.859246 L26.98 819.38 A1.71849 1.71849 0 0 1 28.7 817.66 L28.7 817.66
								 Z" class="st28"/>
				</g>
				<g id="shape3122-109" v:mID="3122" v:groupContext="shape" transform="translate(-500.2,1339.52) rotate(-134.919)">
					<title>Sheet.3122</title>
					<path d="M27.1 817.32 L29.78 817.32 A1.71849 1.71849 0 0 1 31.5 819.04 L31.5 838.83 a0.859246 0.859246 0 0 1
								 -0.859246 0.859246 L27.96 839.69 a0.859246 0.859246 0 0 1 -0.859246 -0.859246 L27.1 817.32 Z"
							class="st15"/>
				</g>
				<g id="shape3123-111" v:mID="3123" v:groupContext="shape" transform="translate(-432.037,1381.34) rotate(-135.081)">
					<title>Sheet.3123</title>
					<path d="M66.92 817.64 L69.6 817.64 a0.859246 0.859246 0 0 1 0.859246 0.859246 L70.46 839.69 L67.78 839.69 A1.71849
								 1.71849 0 0 1 66.06 837.97 L66.06 818.49 a0.859246 0.859246 0 0 1 0.859246 -0.859246 L66.92 817.64
								 Z" class="st29"/>
				</g>
				<g id="shape3124-115" v:mID="3124" v:groupContext="shape" transform="translate(-530.17,196.988) rotate(-45.081)">
					<title>Sheet.3124</title>
					<path d="M66.77 817.32 L69.45 817.32 a0.859246 0.859246 0 0 1 0.859246 0.859246 L70.31 837.97 A1.71849 1.71849
								 0 0 1 68.59 839.69 L65.91 839.69 L65.91 818.19 a0.859246 0.859246 0 0 1 0.859246 -0.875664 Z"
							class="st15"/>
				</g>
				<g id="shape3125-117" v:mID="3125" v:groupContext="shape" transform="translate(333.022,-40.8732) rotate(17.752)">
					<title>Sheet.3125</title>
					<path d="M0 839.08 a0.612979 0.612979 -180 0 0 0.612965 0.612965 L3.8 839.69 a0.612979 0.612979 -180 0 0 0.612965
								 -0.612965 L4.41 798.52 a0.612979 0.612979 -180 0 0 -0.612965 -0.612965 L0.61 797.91 a0.612979 0.612979
								 -180 0 0 -0.612965 0.612965 L0 839.08 Z" class="st15"/>
				</g>
			</g>
		</g>
		<g id="group3126-119" transform="translate(127.926,-124.733)" v:mID="3126" v:groupContext="group">
			<v:userDefs>
				<v:ud v:nameU="visNavOrder" v:val="VT0(626000):26"/>
			</v:userDefs>
			<title>MsPortalFx.base.images-60</title>
			<g id="group3127-120" v:mID="3127" v:groupContext="group">
				<title>Sheet.3127</title>
				<g id="shape3128-121" v:mID="3128" v:groupContext="shape" transform="translate(0,-0.0224881)">
					<title>Sheet.3128</title>
					<path d="M5.62 786.54 L95.57 786.54 L95.57 836.68 A3.00778 3.00778 0 0 1 92.57 839.69 L8.63 839.69 A3.00778 3.00778
								 0 0 1 5.62 836.68 L5.62 786.54 Z" class="st13"/>
				</g>
				<g id="shape3129-124" v:mID="3129" v:groupContext="shape" transform="translate(0,-53.1787)">
					<title>Sheet.3129</title>
					<path d="M8.65 820.52 L92.55 820.52 A3.00778 3.00778 0 0 1 95.57 823.54 L95.57 839.69 L5.62 839.69 L5.62 823.54
								 A3.00778 3.00778 0 0 1 8.65 820.52 Z" class="st30"/>
				</g>
				<g id="shape3130-126" v:mID="3130" v:groupContext="shape" transform="translate(-4.81615E-13,-0.0224881)">
					<title>Sheet.3130</title>
					<path d="M5.62 786.54 L29.2 786.54 L29.2 839.69 L8.64 839.69 A2.99092 2.99092 0 0 1 5.62 836.7 L5.62 786.54 Z"
							class="st25"/>
				</g>
				<g id="shape3131-128" v:mID="3131" v:groupContext="shape">
					<title>Sheet.3131</title>
					<path d="M29.2 828.02 L95.57 828.02 L95.57 836.7 A2.99092 2.99092 0 0 1 92.58 839.69 L29.2 839.69 L29.2 828.02
								 Z" class="st24"/>
				</g>
			</g>
		</g>
		<g id="group3135-130" transform="translate(1328.63,-256.921)" v:mID="3135" v:groupContext="group">
			<v:userDefs>
				<v:ud v:nameU="visNavOrder" v:val="VT0(627000):26"/>
			</v:userDefs>
			<title>Sheet.3135</title>
			<g id="group3136-131" v:mID="3136" v:groupContext="group">
				<title>Sheet.3136</title>
				<g id="group3137-132" v:mID="3137" v:groupContext="group">
					<title>Sheet.3137</title>
					<g id="shape3138-133" v:mID="3138" v:groupContext="shape">
						<title>Sheet.3138</title>
						<path d="M31.05 778.53 L28.64 778.53 A1.70346 1.70346 0 0 1 26.94 776.85 L26.94 770.25 A1.70346 1.70346 0
									 0 1 28.64 768.55 L31.05 768.55 A1.6995 1.6995 0 0 1 32.75 770.25 L32.75 776.85 A1.6995 1.6995
									 0 0 1 31.05 778.53 ZM43.39 776.85 L43.39 770.25 A1.70346 1.70346 -180 0 0 41.69 768.55 L39.29
									 768.55 A1.70346 1.70346 -180 0 0 37.59 770.25 L37.59 776.85 A1.70346 1.70346 -180 0 0 39.29
									 778.55 L41.69 778.55 A1.70346 1.70346 -180 0 0 43.39 776.85 ZM32.75 838.16 L32.75 833.12 A1.53351
									 1.53351 -180 0 0 31.22 831.59 L28.46 831.59 A1.53351 1.53351 -180 0 0 26.92 833.12 L26.92 838.16
									 A1.53351 1.53351 -180 0 0 28.46 839.69 L31.22 839.69 A1.53351 1.53351 -180 0 0 32.75 838.16
									 ZM43.39 838.16 L43.39 833.12 A1.53351 1.53351 -180 0 0 41.86 831.59 L39.13 831.59 A1.53351 1.53351
									 -180 0 0 37.59 833.12 L37.59 838.16 A1.53351 1.53351 -180 0 0 39.13 839.69 L41.87 839.69 A1.53351
									 1.53351 -180 0 0 43.39 838.16 ZM62.36 802.14 L69.39 802.14 A1.75879 1.75879 -180 0 0 71.14 800.38
									 L71.14 798.03 A1.75879 1.75879 -180 0 0 69.38 796.28 L62.36 796.28 A1.75879 1.75879 -180 0 0
									 60.6 798.03 L60.6 800.38 A1.75879 1.75879 -180 0 0 62.36 802.14 L62.36 802.14 ZM62.36 812.88
									 L69.39 812.88 A1.75879 1.75879 -180 0 0 71.14 811.12 L71.14 808.78 A1.75484 1.75484 -180 0 0
									 69.38 807.02 L62.36 807.02 A1.75484 1.75484 -180 0 0 60.6 808.78 L60.6 811.12 A1.75879 1.75879
									 -180 0 0 62.36 812.88 L62.36 812.88 ZM1.52 802.14 L6.38 802.14 A1.52165 1.52165 -180 0 0 7.9
									 800.62 L7.9 797.8 A1.52165 1.52165 -180 0 0 6.38 796.28 L1.52 796.28 A1.52165 1.52165 -180 0
									 0 0 797.8 L0 800.62 A1.52165 1.52165 -180 0 0 1.52 802.14 ZM1.52 812.89 L6.38 812.89 A1.52165
									 1.52165 -180 0 0 7.9 811.36 L7.9 808.54 A1.52165 1.52165 -180 0 0 6.38 807.02 L1.52 807.02 A1.52165
									 1.52165 -180 0 0 -0 808.54 L0 811.36 A1.52165 1.52165 -180 0 0 1.52 812.88 L1.52 812.89 Z"
								class="st17"/>
					</g>
					<g id="shape3139-135" v:mID="3139" v:groupContext="shape" transform="translate(6.85335,-6.54111)">
						<title>Sheet.3139</title>
						<path d="M0 836.21 A3.47814 3.47814 -180 0 0 3.48 839.69 L53.15 839.69 A3.47814 3.47814 -180 0 0 56.63 836.21
									 L56.63 786.03 A3.47814 3.47814 -180 0 0 53.15 782.55 L3.48 782.55 A3.47814 3.47814 -180 0 0
									 -0 786.03 L0 836.21 Z" class="st31"/>
					</g>
				</g>
				<g id="group3140-139" transform="translate(23.3306,-21.2952)" v:mID="3140" v:groupContext="group">
					<title>Sheet.3140</title>
					<g id="shape3141-140" v:mID="3141" v:groupContext="shape" transform="translate(12.2562,0)">
						<title>Sheet.3141</title>
						<path d="M12.22 818.29 L12.22 832.54 L0 839.69 L0 825.42 L12.22 818.29 Z" class="st26"/>
					</g>
					<g id="shape3142-142" v:mID="3142" v:groupContext="shape" transform="translate(0,-14.2442)">
						<title>Sheet.3142</title>
						<path d="M24.48 832.54 L12.26 839.69 L0 832.54 L12.26 825.38 L24.48 832.54 Z" class="st32"/>
					</g>
					<g id="shape3143-144" v:mID="3143" v:groupContext="shape">
						<title>Sheet.3143</title>
						<path d="M12.26 825.45 L12.26 839.69 L0 832.54 L0 818.29 L12.26 825.45 Z" class="st25"/>
					</g>
					<g id="shape3144-146" v:mID="3144" v:groupContext="shape">
						<title>Sheet.3144</title>
						<path d="M0 832.54 L12.26 825.42 L12.26 839.69 L0 832.54 Z" class="st32"/>
					</g>
					<g id="shape3145-148" v:mID="3145" v:groupContext="shape" transform="translate(12.2562,0)">
						<title>Sheet.3145</title>
						<path d="M12.22 832.54 L0 825.42 L0 839.69 L12.22 832.54 Z" class="st25"/>
					</g>
				</g>
			</g>
		</g>
		<g id="group3146-150" transform="translate(459,-235.824)" v:mID="3146" v:groupContext="group">
			<v:userDefs>
				<v:ud v:nameU="visNavOrder" v:val="VT0(628000):26"/>
			</v:userDefs>
			<title>Sheet.3146</title>
			<g id="shape3147-151" v:mID="3147" v:groupContext="shape" transform="translate(5.94332,-29.1454)">
				<title>Sheet.3147</title>
				<path d="M20.78 811.51 C20.44 811.48 20.09 811.48 19.74 811.48 L19.76 811.46 C16.09 811.46 12.57 812.92 9.98 815.51
							 C7.39 818.11 5.93 821.62 5.93 825.29 L5.93 839.69 L0 839.69 L0 825.29 C0 820.05 2.08 815.03 5.79 811.32
							 C9.09 808.02 13.43 806.01 18.05 805.61 L21.23 805.61 C31.6 806.35 39.5 815.28 39.52 825.69 L39.52 839.69
							 L33.58 839.69 L33.58 825.69 C33.58 818.26 27.96 812.03 20.78 811.51 Z" class="st33"/>
			</g>
			<g id="shape3148-153" v:mID="3148" v:groupContext="shape">
				<title>Sheet.3148</title>
				<path d="M51.37 839.69 L0 839.69 L0 802.15 L51.37 802.15 L51.37 839.69 Z" class="st33"/>
			</g>
			<g id="shape3149-155" v:mID="3149" v:groupContext="shape" transform="translate(19.7596,-15.872)">
				<title>Sheet.3149</title>
				<path d="M0 833.7 L0 833.83 C0 837.07 2.63 839.69 5.86 839.69 L5.99 839.69 C9.23 839.69 11.86 837.07 11.86 833.83
							 L11.86 833.7 C11.86 830.46 9.23 827.84 5.99 827.84 L5.86 827.84 C2.63 827.84 0 830.46 0 833.7 Z"
						class="st34"/>
			</g>
			<g id="shape3150-157" v:mID="3150" v:groupContext="shape" transform="translate(22.7236,-7.90385)">
				<title>Sheet.3150</title>
				<path d="M2.99 825.86 L2.94 825.86 C1.32 825.86 0 827.18 0 828.8 L0 836.75 C0 838.38 1.32 839.69 2.94 839.69 L2.99
							 839.69 C4.61 839.69 5.93 838.38 5.93 836.75 L5.93 828.8 C5.93 827.18 4.61 825.86 2.99 825.86 Z"
						class="st34"/>
			</g>
		</g>
		<g id="group3151-159" transform="translate(597.75,-242.375)" v:mID="3151" v:groupContext="group">
			<v:userDefs>
				<v:ud v:nameU="visNavOrder" v:val="VT0(629000):26"/>
			</v:userDefs>
			<title>Icon-manage-316</title>
			<g id="shape3152-160" v:mID="3152" v:groupContext="shape" transform="translate(15.5902,-19.3133)">
				<title>Sheet.3152</title>
				<ellipse cx="8.34445" cy="831.315" rx="8.34445" ry="8.37654" class="st35"/>
			</g>
			<g id="shape3153-164" v:mID="3153" v:groupContext="shape" transform="translate(43.2231,-36.6761)">
				<title>Sheet.3153</title>
				<ellipse cx="4.07594" cy="835.584" rx="4.07594" ry="4.10804" class="st24"/>
			</g>
			<g id="shape3154-166" v:mID="3154" v:groupContext="shape" transform="translate(43.2231,-23.2608)">
				<title>Sheet.3154</title>
				<ellipse cx="4.07594" cy="835.584" rx="4.07594" ry="4.10804" class="st24"/>
			</g>
			<g id="shape3155-168" v:mID="3155" v:groupContext="shape" transform="translate(43.2231,-9.87762)">
				<title>Sheet.3155</title>
				<ellipse cx="4.07594" cy="835.584" rx="4.07594" ry="4.10804" class="st24"/>
			</g>
			<g id="shape3156-170" v:mID="3156" v:groupContext="shape" transform="translate(33.9158,-29.808)">
				<title>Sheet.3156</title>
				<ellipse cx="4.07594" cy="835.584" rx="4.07594" ry="4.10804" class="st26"/>
			</g>
			<g id="shape3157-172" v:mID="3157" v:groupContext="shape" transform="translate(33.9158,-16.3927)">
				<title>Sheet.3157</title>
				<ellipse cx="4.07594" cy="835.584" rx="4.07594" ry="4.10804" class="st26"/>
			</g>
			<g id="shape3158-174" v:mID="3158" v:groupContext="shape" transform="translate(0.0245491,-38.1846)">
				<title>Sheet.3158</title>
				<path d="M4.53 839.69 a0.770257 0.770257 0 0 1 0.288846 -0.256752 L23.49 828.56 C23.75 828.56 39.54 837.48 39.54
							 837.48 a0.770257 0.770257 -180 0 0 1.15539 -0.673975 L40.7 833.31 a0.770257 0.770257 -180 0 0 -0.385128
							 -0.673975 C40.31 832.63 23.75 823.26 23.52 823.39 L0.35 836.68 L0 836.93 L4.53 839.69 Z" class="st22"/>
			</g>
			<g id="shape3159-176" v:mID="3159" v:groupContext="shape" transform="translate(23.9346,-2.27374E-13)">
				<title>Sheet.3159</title>
				<path d="M15.57 825.77 L0.35 834.53 A1.12329 1.12329 0 0 1 0 834.53 L0 839.67 a0.641881 0.641881 -180 0 0 0.353034
							 0 L16.4 830.49 a0.770257 0.770257 -180 0 0 0.385128 -0.641881 L16.79 826.44 a0.770257 0.770257 -180
							 0 0 -1.21957 -0.673975 Z" class="st22"/>
			</g>
			<g id="shape3160-178" v:mID="3160" v:groupContext="shape" transform="translate(0,-0.000289345)">
				<title>Sheet.3160</title>
				<path d="M23.93 834.63 a0.994915 0.994915 0 0 1 -0.417222 0 L4.84 823.62 a0.706069 0.706069 0 0 1 -0.385128 -0.641881
							 L4.45 801.89 a0.866539 0.866539 0 0 1 -2.30926E-14 -0.385128 L0.02 798.75 a0.898633 0.898633 -180 0
							 0 4.39648E-14 0.417222 L0.02 825.71 a0.770257 0.770257 -180 0 0 0.353034 0.673975 L23.55 839.67 a0.770257
							 0.770257 -180 0 0 0.385128 0 L23.93 834.63 Z" class="st36"/>
			</g>
		</g>
		<g id="group3161-180" transform="translate(741.75,-239.142)" v:mID="3161" v:groupContext="group">
			<v:userDefs>
				<v:ud v:nameU="visNavOrder" v:val="VT0(630000):26"/>
			</v:userDefs>
			<title>Sheet.3161</title>
			<g id="shape3162-181" v:mID="3162" v:groupContext="shape" transform="translate(0,-0.289845)">
				<title>Sheet.3162</title>
				<path d="M0.07 784.11 L4.46 779.01 A2.13761 2.13761 0 0 1 6.09 778.28 L48.15 778.28 A2.93468 2.93468 0 0 1 51.38
							 781.29 L51.38 833.82 A2.06514 2.06514 0 0 1 50.65 835.38 L45.94 839.69 L2.93 839.69 L0 838.5 L0.07 784.11
							 Z" class="st37"/>
			</g>
			<g id="shape3163-183" v:mID="3163" v:groupContext="shape" transform="translate(3.62306,-2.57237)">
				<title>Sheet.3163</title>
				<path d="M0 786.36 L2.68 783.32 A1.81153 1.81153 0 0 1 3.95 782.66 L43.4 782.66 A1.88399 1.88399 0 0 1 45.29 784.55
							 L45.29 834.47 A1.88399 1.88399 0 0 1 44.67 835.89 L40.47 839.69 L0 786.36 Z" class="st38"/>
			</g>
			<g id="shape3164-185" v:mID="3164" v:groupContext="shape" transform="translate(0.108692,0)">
				<title>Sheet.3164</title>
				<path d="M43.69 783.75 L0.22 783.75 a0.217384 0.217384 -180 0 0 -0.217384 0.217384 L0 838.32 A1.41299 1.41299 -180
							 0 0 1.41 839.69 L43.69 839.69 A1.37676 1.37676 -180 0 0 45.07 838.32 L45.07 785.16 A1.41299 1.41299
							 -180 0 0 43.69 783.75 Z" class="st39"/>
			</g>
			<g id="shape3165-189" v:mID="3165" v:groupContext="shape" transform="translate(10.1808,-32.4264)">
				<title>Sheet.3165</title>
				<path d="M0 838.68 A1.01448 1.01448 -180 0 0 1.01 839.69 L22.83 839.69 A1.01448 1.01448 -180 0 0 23.84 838.68 L23.84
							 832.08 A1.01448 1.01448 -180 0 0 22.83 831.07 L1.01 831.07 A1.01448 1.01448 -180 0 0 -0 832.08 L0 838.68
							 Z" class="st38"/>
			</g>
		</g>
		<g id="group3166-191" transform="translate(1328.63,-374.117)" v:mID="3166" v:groupContext="group">
			<v:userDefs>
				<v:ud v:nameU="visNavOrder" v:val="VT0(631000):26"/>
			</v:userDefs>
			<title>Sheet.3166</title>
			<g id="shape3167-192" v:mID="3167" v:groupContext="shape">
				<title>Sheet.3167</title>
				<path d="M0 836.99 C0 838.41 1.14 839.69 2.56 839.69 L68.44 839.69 C69.86 839.69 71.14 838.55 71.14 836.99 L71.14
							 789.89 L0 789.89 L0 836.99 Z" class="st40"/>
			</g>
			<g id="shape3168-194" v:mID="3168" v:groupContext="shape" transform="translate(0,-49.9417)">
				<title>Sheet.3168</title>
				<path d="M68.44 828.88 L2.56 828.88 C1.14 828.88 0 830.16 0 831.58 L0 839.69 L71.14 839.69 L71.14 831.58 C71.14 830.16
							 70 828.88 68.44 828.88 Z" class="st41"/>
			</g>
			<g id="shape3169-196" v:mID="3169" v:groupContext="shape" transform="translate(5.26451,-26.4648)">
				<title>Sheet.3169</title>
				<rect x="0" y="821.195" width="29.0259" height="18.4969" class="st42"/>
			</g>
			<g id="shape3170-198" v:mID="3170" v:groupContext="shape" transform="translate(5.26451,-5.40679)">
				<title>Sheet.3170</title>
				<rect x="0" y="821.195" width="29.0259" height="18.4969" class="st42"/>
			</g>
			<g id="shape3171-200" v:mID="3171" v:groupContext="shape" transform="translate(36.8516,-26.4648)">
				<title>Sheet.3171</title>
				<rect x="0" y="821.195" width="28.8837" height="18.4969" class="st43"/>
			</g>
			<g id="shape3172-202" v:mID="3172" v:groupContext="shape" transform="translate(36.8516,-5.40679)">
				<title>Sheet.3172</title>
				<rect x="0" y="821.195" width="28.8837" height="18.4969" class="st42"/>
			</g>
			<g id="shape3173-204" v:mID="3173" v:groupContext="shape" transform="translate(0,-0.142284)">
				<title>Sheet.3173</title>
				<path d="M2.85 779.08 C1.28 779.08 0 780.36 0 781.92 L0 792.31 L0 797.01 L0 836.85 C0 838.41 1.28 839.69 2.85 839.69
							 L5.98 839.69 L62.04 779.08 L2.85 779.08 Z" class="st44"/>
			</g>
		</g>
		<g id="group3174-206" transform="translate(1333.12,-148.492)" v:mID="3174" v:groupContext="group">
			<v:userDefs>
				<v:ud v:nameU="visNavOrder" v:val="VT0(632000):26"/>
			</v:userDefs>
			<title>Sheet.3174</title>
			<g id="shape3175-207" v:mID="3175" v:groupContext="shape" transform="translate(-590.454,245.94) rotate(-45)">
				<title>Sheet.3175</title>
				<path d="M0 837.5 A2.19272 2.19272 -180 0 0 2.19 839.69 L18.31 839.69 A2.19272 2.19272 -180 0 0 20.5 837.5 L20.5
							 837.22 A2.19272 2.19272 -180 0 0 18.31 835.03 L2.19 835.03 A2.19272 2.19272 -180 0 0 -0 837.22 L0 837.5
							 Z" class="st45"/>
			</g>
			<g id="shape3176-209" v:mID="3176" v:groupContext="shape" transform="translate(16.956,-17.1715)">
				<title>Sheet.3176</title>
				<path d="M41.38 810.2 A22.414 22.414 -180 0 0 38.77 805.5 A21.7179 21.7179 -180 0 0 8.35 801.18 L8.14 801.36 A21.5091
							 21.5091 -180 0 0 0.45 812.95 C0.45 813.71 0.1 814.48 0 815.24 A21.7527 21.7527 -180 0 0 6.58 834.25
							 A7.27411 7.27411 -180 0 0 7.34 834.94 L8.11 835.57 A20.0473 20.0473 -180 0 0 11.38 837.66 L11.73 837.87
							 L12.32 838.11 L12.81 838.36 L13.33 838.56 L13.89 838.77 L14.37 838.95 L15.07 839.16 L15.45 839.16 L16.46
							 839.43 L17.58 839.68 L17.85 839.68 A6.61282 6.61282 -180 0 0 18.72 839.68 L19.07 839.68 L22.8 839.68
							 L23.6 839.68 L24.01 839.68 A17.7502 17.7502 -180 0 0 26.66 839.16 A21.5787 21.5787 -180 0 0 34.35 835.33
							 A22.1356 22.1356 -180 0 0 38.28 831.39 A21.8571 21.8571 -180 0 0 41.38 810.2 ZM36.34 806.96 L32.09 806.96
							 A20.6042 20.6042 -180 0 0 29.03 801.18 A18.5855 18.5855 0 0 1 36.44 806.96 L36.34 806.96 ZM22.73 800
							 A11.381 11.381 0 0 1 28.99 806.96 L22.73 806.96 L22.73 800 ZM22.73 809.89 L29.93 809.89 A32.1244 32.1244
							 0 0 1 31.08 817.23 L22.73 817.23 L22.73 809.89 ZM22.73 820.01 L31.08 820.01 A32.1244 32.1244 0 0 1 29.93
							 827.39 L22.83 827.39 L22.83 819.87 L22.73 820.01 ZM11.87 815.04 A30.3842 30.3842 0 0 1 12.84 809.75
							 L20.05 809.75 L20.05 817.09 L11.73 817.09 C11.76 816.39 11.8 815.7 11.87 815.04 ZM20.05 799.86 L20.05
							 806.82 L13.82 806.82 A11.2418 11.2418 0 0 1 20.05 799.86 ZM9.85 803.55 A20.2909 20.2909 0 0 1 13.68
							 801.32 A21.3003 21.3003 -180 0 0 10.62 807.14 L6.58 807.14 A19.7689 19.7689 0 0 1 9.85 803.55 ZM4.66
							 809.75 L10.06 809.75 A31.7068 31.7068 -180 0 0 9.22 814.41 C9.22 815.28 9.05 816.18 9.05 817.09 L2.58
							 817.09 A22.4836 22.4836 0 0 1 3.1 814.48 A20.8826 20.8826 0 0 1 4.66 809.75 ZM2.58 819.87 L8.94 819.87
							 A32.5421 32.5421 -180 0 0 10.06 827.25 L4.66 827.25 A18.6551 18.6551 0 0 1 2.58 819.87 ZM6.58 830.11
							 L10.79 830.11 A20.6042 20.6042 -180 0 0 13.85 835.88 A18.4811 18.4811 0 0 1 6.58 830.11 ZM20.12 837.07
							 A11.2418 11.2418 0 0 1 13.89 830.11 L20.12 830.11 L20.12 837.07 ZM20.12 827.18 L12.84 827.18 A32.1592
							 32.1592 0 0 1 11.73 819.8 L20.05 819.8 L20.05 827.25 L20.12 827.18 ZM25.44 835.61 A6.96087 6.96087 0
							 0 1 22.9 837.07 L22.9 830.11 L29.17 830.11 A15.4531 15.4531 0 0 1 25.37 835.68 L25.44 835.61 ZM33.03
							 833.34 A18.0635 18.0635 0 0 1 29.03 835.71 A20.6042 20.6042 -180 0 0 32.09 829.93 L36.44 829.93 A18.6203
							 18.6203 0 0 1 33.03 833.34 ZM38.18 827.15 L32.96 827.15 A37.0318 37.0318 -180 0 0 33.97 819.77 L40.27
							 819.77 A18.3419 18.3419 0 0 1 38.18 827.25 L38.18 827.15 ZM33.97 817.09 A37.0318 37.0318 -180 0 0 32.96
							 809.75 L38.22 809.75 A19.2816 19.2816 0 0 1 40.3 817.09 L33.97 817.09 Z" class="st46"/>
			</g>
			<g id="shape3177-213" v:mID="3177" v:groupContext="shape" transform="translate(7.24558,-9.66813)">
				<title>Sheet.3177</title>
				<ellipse cx="14.061" cy="825.631" rx="14.061" ry="14.061" class="st47"/>
			</g>
			<g id="shape3178-215" v:mID="3178" v:groupContext="shape" transform="translate(10.2388,-12.9397)">
				<title>Sheet.3178</title>
				<ellipse cx="11.033" cy="828.659" rx="11.033" ry="11.033" class="st38"/>
			</g>
			<g id="shape3179-217" v:mID="3179" v:groupContext="shape" transform="translate(11.1785,-17.2555)">
				<title>Sheet.3179</title>
				<path d="M4.42 833.22 L7.2 839.69 L10.02 831.37 L12.36 836.11 L15.24 831.23 L19.73 831.23 A12.4251 12.4251 -180 0
							 0 19.32 829.6 L14.48 829.6 L12.6 832.77 L9.71 827.27 L7.03 835.17 L4.59 829.56 L1.6 835.03 L0 835.03
							 A8.94472 8.94472 -180 0 0 0.52 836.66 L2.54 836.66 L4.42 833.22 Z" class="st48"/>
			</g>
		</g>
		<g id="group3180-219" transform="translate(982.125,-322.451)" v:mID="3180" v:groupContext="group">
			<v:userDefs>
				<v:ud v:nameU="visNavOrder" v:val="VT0(633000):26"/>
			</v:userDefs>
			<title>Sheet.3180</title>
			<g id="group3181-220" v:mID="3181" v:groupContext="group">
				<title>fa192b48-a9c1-4b8a-a5b7-069d1f4</title>
				<g id="shape3182-221" v:mID="3182" v:groupContext="shape" transform="translate(0.1321,-5.68434E-13)">
					<title>Sheet.3182</title>
					<path d="M47.69 820.66 L47.69 839.69 L46.9 839.69 a0.06605 0.06605 -180 0 0 -0.06605 -0.06605 A2.70805 2.70805
								 0 0 1 46.1 839.56 C45.84 839.49 45.57 839.36 45.31 839.3 L45.24 839.3 C31.7 831.63 16.97 822.92
								 3.5 815.25 C2.51 814.59 0 813.6 0.2 812.28 L0.33 793.26 A2.15323 2.15323 -180 0 0 1.59 795.04 L44.78
								 819.94 A2.06737 2.06737 -180 0 0 45.44 820.27 A6.43327 6.43327 -180 0 0 47.69 820.66 ZM46.96 798.13
								 A5.71333 5.71333 0 0 1 45.44 797.74 A6.84939 6.84939 0 0 1 44.78 797.47 L1.59 772.51 A2.07397 2.07397
								 0 0 1 0.33 770.72 L0.2 789.74 C0 791.07 2.51 792.06 3.5 792.72 C16.97 800.45 31.7 809.16 45.24 816.76
								 L45.31 816.76 L45.97 816.96 a0.204755 0.204755 -180 0 0 0.1321 0.06605 C46.37 817.09 46.57 817.09
								 46.83 817.16 L47.69 817.16 L47.69 798.13 L46.96 798.13 ZM45.44 775.28 C44.32 774.82 2.64 750.51
								 1.59 749.98 A2.07397 2.07397 0 0 1 0.33 748.2 L0.2 767.22 C0 768.54 2.51 769.6 3.5 770.19 C16.97
								 777.92 31.7 786.64 45.24 794.24 L45.31 794.24 A3.72522 3.72522 -180 0 0 46.1 794.5 C46.37 794.57
								 46.57 794.57 46.83 794.63 L46.9 794.63 C47.09 794.63 47.29 794.7 47.49 794.7 L47.69 794.7 L47.69
								 775.68 A8.42798 8.42798 0 0 1 45.44 775.28 Z" class="st14"/>
				</g>
				<g id="shape3183-223" v:mID="3183" v:groupContext="shape" transform="translate(17.4726,-73.2133)">
					<title>Sheet.3183</title>
					<path d="M59.54 822.87 L30.74 839.44 A2.52311 2.52311 0 0 1 28.56 839.44 L1.09 823.79 A2.17305 2.17305 0 0 1
								 1.09 820.03 L29.89 803.45 A2.52311 2.52311 0 0 1 32.06 803.45 L59.54 819.1 A2.14663 2.14663 0 0
								 1 59.54 822.87 Z" class="st49"/>
				</g>
				<g id="shape3184-225" v:mID="3184" v:groupContext="shape" transform="translate(47.8202,6.82121E-13)">
					<title>Sheet.3184</title>
					<path d="M47.23 748.66 L47.23 748.73 L47.03 749.12 A2.29854 2.29854 0 0 1 46.1 749.98 L3.17 774.96 A7.19285 7.19285
								 0 0 1 1.06 775.62 A3.76485 3.76485 0 0 1 0.2 775.69 L0 775.69 L0 794.71 A3.21664 3.21664 -180 0
								 0 0.79 794.65 A5.76617 5.76617 -180 0 0 2.25 794.32 A2.85997 2.85997 -180 0 0 3.04 793.99 L34.41
								 775.76 L37.25 774.1 L45.97 769.02 A3.66578 3.66578 -180 0 0 46.5 768.62 C46.63 768.56 46.7 768.42
								 46.83 768.29 L46.83 768.23 L46.9 768.23 L46.9 768.16 C47.03 768.09 47.03 767.96 47.09 767.83 L47.09
								 767.76 L47.16 767.7 C47.16 767.57 47.23 767.43 47.23 767.3 L47.36 748.28 a0.93791 0.93791 0 0 1
								 -0.1321 0.38309 ZM47.23 771.18 L47.23 771.25 L47.03 771.65 A2.87978 2.87978 0 0 1 46.1 772.51 L45.77
								 772.7 L44.78 773.23 L43.99 773.69 L38.97 776.6 L30.18 781.75 L26.22 784.06 L24.24 785.25 L20.28
								 787.57 L14.53 790.87 L7.99 794.63 L3.17 797.41 A5.73975 5.73975 0 0 1 1.06 798.13 L0.2 798.13 a0.125495
								 0.125495 0 0 1 -0.19815 3.41061E-13 L0 817.16 L0.79 817.16 A5.76617 5.76617 -180 0 0 2.25 816.83
								 A2.22589 2.22589 -180 0 0 3.04 816.43 L9.78 812.53 L13.01 810.68 L20.54 806.32 L24.5 804.01 L26.55
								 802.82 L30.52 800.51 L45.97 791.53 A3.66578 3.66578 -180 0 0 46.5 791.13 C46.63 791.07 46.7 790.93
								 46.83 790.8 L46.83 790.74 L46.9 790.74 L46.9 790.67 C47.03 790.54 47.03 790.41 47.09 790.27 a0.06605
								 0.06605 0 0 1 0.06605 -0.06605 C47.16 790.08 47.23 789.94 47.23 789.74 L47.36 770.79 a0.706735 0.706735
								 0 0 1 -0.1321 0.3963 ZM47.23 793.71 L47.23 793.77 L47.03 794.17 A3.85732 3.85732 0 0 1 46.1 795.03
								 L3.17 819.93 A4.67634 4.67634 0 0 1 1.06 820.59 A3.76485 3.76485 0 0 1 0.2 820.66 L0 820.66 L0 839.69
								 L0.79 839.69 A5.76617 5.76617 -180 0 0 2.25 839.36 C4.23 838.57 44.25 814.92 45.97 814 A3.68559
								 3.68559 -180 0 0 46.5 813.67 L46.83 813.34 L46.83 813.27 L46.9 813.27 L46.9 813.21 C47.03 813.07
								 47.03 812.94 47.09 812.81 C47.16 812.68 47.09 812.74 47.16 812.74 C47.16 812.61 47.23 812.41 47.23
								 812.28 L47.36 793.26 a0.957725 0.957725 0 0 1 -0.1321 0.44914 Z" class="st50"/>
				</g>
				<g id="shape3185-227" v:mID="3185" v:groupContext="shape" transform="translate(0,-15.3764)">
					<title>Sheet.3185</title>
					<path d="M93.92 810.41 L50.99 835.31 A6.71729 6.71729 0 0 1 44.85 835.31 L1.72 810.41 C0 809.41 0 807.9 1.65
								 806.9 C15.81 815.13 31.12 824.08 45.38 832.14 A5.9445 5.9445 0 0 1 46.1 832.33 A6.28796 6.28796
								 -180 0 0 50.86 831.81 C50.99 831.74 93.79 806.94 93.86 806.84 A1.88903 1.88903 0 0 1 93.92 810.41
								 ZM93.86 784.32 a0.06605 0.06605 0 0 1 -0.06605 0.06605 C93.79 784.38 50.92 809.28 50.86 809.35 A6.69747
								 6.69747 0 0 1 45.44 809.61 L45.38 809.61 C31.12 801.57 15.8 792.63 1.65 784.39 C0 785.39 0 786.9
								 1.72 787.9 L44.85 812.8 A6.71729 6.71729 -180 0 0 50.99 812.8 L93.92 787.9 A1.88903 1.88903 -180
								 0 0 93.86 784.32 ZM93.92 765.36 L50.99 790.34 A7.14661 7.14661 0 0 1 44.85 790.34 L1.72 765.37 A1.83619
								 1.83619 0 0 1 1.72 761.87 L44.58 736.89 A6.71729 6.71729 0 0 1 50.73 736.89 L93.86 761.86 C95.57
								 762.85 95.57 764.43 93.92 765.36 ZM77.01 761.26 L49.54 745.61 A2.52311 2.52311 -180 0 0 47.36 745.61
								 L18.56 762.19 A2.17305 2.17305 -180 0 0 18.56 765.95 L46.04 781.61 A2.52311 2.52311 -180 0 0 48.22
								 781.61 L77.01 765.03 A2.14663 2.14663 -180 0 0 77.01 761.28 L77.01 761.26 ZM91.18 827.06 L91.12
								 818.34 a0.27741 0.27741 -180 0 0 -0.40951 -0.23778 L69.31 830.5 a0.27741 0.27741 -180 0 0 -0.138705
								 0.23778 L69.24 839.46 a0.270805 0.270805 -180 0 0 0.402905 0.231175 L91.04 827.29 a0.257595 0.257595
								 -180 0 0 0.1321 -0.231175 ZM91.04 804.79 L69.64 817.18 a0.2642 0.2642 0 0 1 -0.402905 -0.231175
								 L69.17 808.23 a0.284015 0.284015 0 0 1 0.138705 -0.23778 L90.71 795.62 a0.270805 0.270805 0 0 1
								 0.40951 0.231175 L91.18 804.57 a0.270805 0.270805 0 0 1 -0.1321 0.217965 ZM91.04 782.28 L69.64 794.68
								 a0.270805 0.270805 0 0 1 -0.402905 -0.23778 L69.17 785.72 a0.270805 0.270805 0 0 1 0.138705 -0.23778
								 L90.71 773.08 a0.270805 0.270805 0 0 1 0.40951 0.231175 L91.18 782.03 a0.2642 0.2642 0 0 1 -0.1321
								 0.25099 Z" class="st51"/>
				</g>
				<g id="shape3186-229" v:mID="3186" v:groupContext="shape" transform="translate(33.7978,-8.0581)">
					<title>Sheet.3186</title>
					<path d="M5.93 830.39 A3.6922 3.6922 0 0 1 7.62 833.32 L7.62 838.15 C7.62 839.24 6.86 839.69 5.92 839.14 L1.71
								 836.71 A3.76485 3.76485 0 0 1 0 833.75 L0 828.92 C0 827.83 0.78 827.41 1.72 827.95 L5.93 830.39
								 ZM1.72 805.48 C0.78 804.94 0 805.36 0 806.44 L0 811.28 A3.78467 3.78467 -180 0 0 1.71 814.24 L5.92
								 816.67 C6.86 817.22 7.62 816.77 7.62 815.68 L7.62 810.84 A3.70541 3.70541 -180 0 0 5.93 807.91 L1.72
								 805.48 ZM1.72 782.97 C0.78 782.43 0 782.85 0 783.93 L0 788.77 A3.78467 3.78467 -180 0 0 1.71 791.73
								 L5.92 794.16 C6.86 794.71 7.62 794.26 7.62 793.17 L7.62 788.34 A3.70541 3.70541 -180 0 0 5.93 785.4
								 L1.72 782.97 Z" class="st26"/>
				</g>
			</g>
		</g>
		<g id="group3187-231" transform="translate(1328.62,-51.7368)" v:mID="3187" v:groupContext="group">
			<v:userDefs>
				<v:ud v:nameU="visNavOrder" v:val="VT0(634000):26"/>
			</v:userDefs>
			<title>Sheet.3187</title>
			<g id="shape3188-232" v:mID="3188" v:groupContext="shape">
				<title>Sheet.3188</title>
				<path d="M61.95 799.92 C62.23 798.62 62.37 797.38 62.37 796.14 C62.37 786.65 54.65 778.94 45.17 778.94 C38.55 778.94
							 32.59 782.69 29.71 788.58 C27.4 786.28 24.27 784.97 20.97 784.97 C14.16 784.97 8.62 790.52 8.62 797.33
							 C8.62 798.26 8.73 799.19 8.94 800.15 C3.33 802.44 0 807.19 0 812.96 C0 820.74 6.35 826.84 14.46 826.84
							 L15.38 826.84 C15.54 833.95 21.36 839.69 28.48 839.69 C33.28 839.69 37.62 837.1 39.91 832.99 C41.64
							 834.49 43.84 835.32 46.14 835.32 C51.03 835.32 55.08 831.61 55.65 826.84 L57.02 826.84 C65.13 826.84
							 71.48 820.74 71.48 812.96 C71.48 806.95 67.84 802 61.95 799.92 Z" class="st52"/>
			</g>
			<g id="shape3189-234" v:mID="3189" v:groupContext="shape" transform="translate(34.5471,-27.3994)">
				<title>Sheet.3189</title>
				<path d="M21.6 834.1 L22.63 831.64 L22.33 831.38 L20.07 829.42 L20.08 827.43 L22.63 825.15 L21.63 822.69 L21.24 822.71
							 L18.25 822.93 L16.85 821.51 L17.04 818.09 L14.59 817.06 L14.33 817.36 L12.36 819.62 L10.38 819.61 L8.09
							 817.06 L5.63 818.06 L5.66 818.46 L5.87 821.45 L4.45 822.84 L1.04 822.65 L0 825.1 L0.3 825.36 L2.56 827.33
							 L2.55 829.32 L0 831.6 L1 834.06 L1.4 834.03 L4.39 833.83 L5.78 835.24 L5.59 838.65 L8.05 839.69 L8.31
							 839.39 L10.27 837.13 L12.26 837.14 L14.54 839.69 L17.01 838.69 L16.98 838.29 L16.77 835.3 L18.18 833.91
							 L21.6 834.1 ZM9.2 833.39 C6.42 832.22 5.13 829.03 6.3 826.26 C7.47 823.48 10.66 822.18 13.44 823.35
							 C16.21 824.52 17.51 827.72 16.34 830.49 C15.17 833.27 11.97 834.57 9.2 833.39 Z" class="st53"/>
			</g>
			<g id="shape3190-236" v:mID="3190" v:groupContext="shape" transform="translate(16.6779,-9.53024)">
				<title>Sheet.3190</title>
				<path d="M23.83 829.09 L23.83 826.37 L23.44 826.25 L20.54 825.3 L19.77 823.43 L21.26 820.28 L19.34 818.36 L18.98
							 818.55 L16.26 819.93 L14.39 819.15 L13.22 815.87 L10.51 815.87 L10.38 816.25 L9.43 819.15 L7.56 819.92
							 L4.41 818.43 L2.5 820.35 L2.68 820.71 L4.06 823.43 L3.28 825.3 L0 826.47 L0 829.19 L0.38 829.31 L3.29
							 830.26 L4.06 832.13 L2.57 835.28 L4.48 837.2 L4.84 837.02 L7.57 835.63 L9.43 836.41 L10.61 839.69 L13.32
							 839.69 L13.44 839.31 L14.39 836.41 L16.26 835.64 L19.41 837.13 L21.33 835.21 L21.15 834.85 L19.77 832.13
							 L20.54 830.26 L23.83 829.09 ZM11.91 833.33 C8.84 833.33 6.36 830.84 6.36 827.78 C6.37 824.71 8.85 822.23
							 11.92 822.23 C14.98 822.23 17.47 824.72 17.46 827.78 C17.46 830.85 14.98 833.33 11.91 833.33 Z"
						class="st53"/>
			</g>
			<g id="shape3191-238" v:mID="3191" v:groupContext="shape" transform="translate(42.4007,-35.2531)">
				<title>Sheet.3191</title>
				<path d="M7.35 837.02 C6.59 838.84 4.49 839.69 2.67 838.92 C0.85 838.16 0 836.06 0.77 834.24 C1.54 832.43 3.63 831.57
							 5.45 832.34 C7.27 833.11 8.12 835.2 7.35 837.02 Z" class="st54"/>
			</g>
			<g id="shape3192-240" v:mID="3192" v:groupContext="shape" transform="translate(25.0155,-17.8678)">
				<title>Sheet.3192</title>
				<path d="M7.15 836.12 C7.15 838.09 5.54 839.69 3.57 839.69 C1.6 839.69 0 838.09 0 836.11 C0 834.14 1.6 832.54 3.58
							 832.54 C5.55 832.54 7.15 834.14 7.15 836.12 Z" class="st54"/>
			</g>
		</g>
		<g id="group3193-242" transform="translate(102.681,-490.492)" v:mID="3193" v:groupContext="group">
			<v:userDefs>
				<v:ud v:nameU="visNavOrder" v:val="VT0(635000):26"/>
			</v:userDefs>
			<title>MsPortalFx.base.images-10.3193</title>
			<g id="group3194-243" v:mID="3194" v:groupContext="group">
				<title>Sheet.3194</title>
				<g id="shape3195-244" v:mID="3195" v:groupContext="shape" transform="translate(27.9829,-40.0871)">
					<title>Sheet.3195</title>
					<path d="M2.65 786.36 L92.9 786.36 L92.9 836.68 A3.01542 3.01542 0 0 1 89.89 839.69 L5.67 839.69 A3.01542 3.01542
								 0 0 1 2.65 836.68 L2.65 786.36 Z" class="st13"/>
				</g>
				<g id="shape3196-247" v:mID="3196" v:groupContext="shape" transform="translate(27.9829,-93.4198)">
					<title>Sheet.3196</title>
					<path d="M5.69 820.46 L89.87 820.46 A3.01542 3.01542 0 0 1 92.89 823.48 L92.89 839.69 L2.65 839.69 L2.65 823.48
								 A3.01542 3.01542 0 0 1 5.69 820.46 Z" class="st14"/>
				</g>
				<g id="shape3197-249" v:mID="3197" v:groupContext="shape" transform="translate(-551.311,197.468) rotate(-45.081)">
					<title>Sheet.3197</title>
					<path d="M22.79 816.55 L25.56 816.55 a0.886577 0.886577 0 0 1 0.886577 0.886577 L26.45 837.91 A1.77846 1.77846
								 0 0 1 24.67 839.69 L21.9 839.69 L21.9 817.44 a0.886577 0.886577 0 0 1 0.886577 -0.886577 L22.79
								 816.55 Z" class="st15"/>
				</g>
				<g id="shape3198-251" v:mID="3198" v:groupContext="shape" transform="translate(-515.33,1381.86) rotate(-135.081)">
					<title>Sheet.3198</title>
					<path d="M22.93 816.87 L25.71 816.87 a0.886577 0.886577 0 0 1 0.886577 0.886577 L26.6 839.69 L23.83 839.69 A1.77846
								 1.77846 0 0 1 22.05 837.91 L22.05 817.74 a0.886577 0.886577 0 0 1 0.886577 -0.886577 L22.93 816.87
								 Z" class="st16"/>
				</g>
				<g id="shape3199-253" v:mID="3199" v:groupContext="shape" transform="translate(66.3181,-51.6763)">
					<title>Sheet.3199</title>
					<path d="M0 838.15 A1.54491 1.54491 -180 0 0 1.54 839.69 L23.78 839.69 A1.54491 1.54491 -180 0 0 25.33 838.15
								 L25.33 835.87 A1.54491 1.54491 -180 0 0 23.78 834.32 L1.54 834.32 A1.54491 1.54491 -180 0 0 -0 835.87
								 L0 838.15 Z" class="st15"/>
				</g>
			</g>
		</g>
		<g id="shape3200-255" v:mID="3200" v:groupContext="shape" transform="translate(109.125,-346.492)">
			<title>Sheet.3200</title>
			<desc>Powershell</desc>
			<v:userDefs>
				<v:ud v:nameU="visNavOrder" v:val="VT0(636000):26"/>
			</v:userDefs>
			<v:textBlock v:margins="rect(4,4,4,4)"/>
			<v:textRect cx="66.375" cy="821.692" width="132.75" height="36"/>
			<rect x="0" y="803.692" width="132.75" height="36" class="st5"/>
			<text x="20.36" y="827.09" class="st6" v:langID="1033"><v:paragraph v:horizAlign="1"/><v:tabList/>Powershell</text>		</g>
		<g id="shape3201-258" v:mID="3201" v:groupContext="shape" transform="translate(111.375,-202.492)">
			<title>Sheet.3201</title>
			<desc>HTTP request</desc>
			<v:userDefs>
				<v:ud v:nameU="visNavOrder" v:val="VT0(637000):26"/>
			</v:userDefs>
			<v:textBlock v:margins="rect(4,4,4,4)"/>
			<v:textRect cx="66.375" cy="821.692" width="132.75" height="36"/>
			<rect x="0" y="803.692" width="132.75" height="36" class="st5"/>
			<text x="9.12" y="827.09" class="st6" v:langID="1033"><v:paragraph v:horizAlign="1"/><v:tabList/>HTTP request</text>		</g>
		<g id="shape3202-261" v:mID="3202" v:groupContext="shape" transform="translate(109.125,-76.4921)">
			<title>Sheet.3202</title>
			<desc>Azure portal</desc>
			<v:userDefs>
				<v:ud v:nameU="visNavOrder" v:val="VT0(638000):26"/>
			</v:userDefs>
			<v:textBlock v:margins="rect(4,4,4,4)"/>
			<v:textRect cx="66.375" cy="821.692" width="132.75" height="36"/>
			<rect x="0" y="803.692" width="132.75" height="36" class="st5"/>
			<text x="13.79" y="827.09" class="st6" v:langID="1033"><v:paragraph v:horizAlign="1"/><v:tabList/>Azure portal</text>		</g>
		<g id="group3203-264" transform="translate(586.125,-356.614)" v:mID="3203" v:groupContext="group">
			<v:userDefs>
				<v:ud v:nameU="visNavOrder" v:val="VT0(639000):26"/>
			</v:userDefs>
			<title>Sheet.3203</title>
			<g id="shape3204-265" v:mID="3204" v:groupContext="shape" transform="translate(15.2951,0)">
				<title>Sheet.3204</title>
				<path d="M0 828.42 C1.47 829.34 3.92 830.36 6.51 830.36 C8.87 830.36 11.06 829.68 12.88 828.51 C12.88 828.51 12.88
							 828.51 12.88 828.51 L19.74 824.23 L19.74 839.69 C18.65 839.69 17.56 839.4 16.61 838.8 L0 828.42 Z"
						class="st7"/>
			</g>
			<g id="shape3205-267" v:mID="3205" v:groupContext="shape" transform="translate(0,-9.32973)">
				<title>Sheet.3205</title>
				<path d="M30.68 790.19 L2.2 822.32 C0 824.8 0.57 828.55 3.43 830.33 C3.43 830.33 13.97 836.92 15.3 837.75 C16.77
							 838.67 19.22 839.69 21.81 839.69 C24.17 839.69 26.36 839.01 28.17 837.84 C28.17 837.84 28.18 837.84
							 28.18 837.84 L35.03 833.56 L18.46 823.2 L35.04 804.5 L35.04 788.27 C35.04 788.27 35.04 788.27 35.04
							 788.27 C33.43 788.27 31.82 788.91 30.68 790.19 L30.68 790.19 Z" class="st8"/>
			</g>
			<g id="shape3206-269" v:mID="3206" v:groupContext="shape" transform="translate(18.462,-15.466)">
				<title>Sheet.3206</title>
				<path d="M0 829.33 L0.2 829.45 L16.57 839.69 L16.57 839.69 L16.57 810.64 L16.57 810.64 L0 829.33 Z" class="st9"/>
			</g>
			<g id="shape3207-271" v:mID="3207" v:groupContext="shape" transform="translate(35.0368,-0.00379721)">
				<title>Sheet.3207</title>
				<path d="M31.6 821.01 C34.46 819.23 35.03 815.47 32.83 812.99 L14.14 791.91 C12.64 791.21 10.95 790.81 9.16 790.81
							 C5.65 790.81 2.51 792.32 0.42 794.7 L0 795.17 C0 795.17 16.57 813.87 16.57 813.87 C16.57 813.87 16.57
							 813.87 16.57 813.87 L0 824.23 L0 839.69 C1.09 839.69 2.18 839.4 3.13 838.8 L31.6 821 L31.6 821.01 Z"
						class="st10"/>
			</g>
			<g id="shape3208-273" v:mID="3208" v:groupContext="shape" transform="translate(35.033,-44.5222)">
				<title>Sheet.3208</title>
				<path d="M0 823.46 L0 839.69 C0 839.69 0.42 839.22 0.42 839.22 C2.51 836.84 5.65 835.33 9.16 835.33 C10.95 835.33
							 12.64 835.74 14.14 836.43 L4.35 825.39 C3.22 824.1 1.61 823.46 0 823.46 L0 823.46 Z" class="st11"/>
			</g>
			<g id="shape3209-275" v:mID="3209" v:groupContext="shape" transform="translate(35.0368,-15.4698)">
				<title>Sheet.3209</title>
				<path d="M16.57 829.34 L0 810.64 L0 839.69 L16.57 829.34 Z" class="st12"/>
			</g>
		</g>
		<g id="group3210-277" transform="translate(1328.63,-518.719)" v:mID="3210" v:groupContext="group">
			<v:userDefs>
				<v:ud v:nameU="visNavOrder" v:val="VT0(640000):26"/>
			</v:userDefs>
			<title>Icon-web-41</title>
			<g id="shape3211-278" v:mID="3211" v:groupContext="shape" transform="translate(2.81157,3.41061E-13)">
				<title>ee75dd06-1aca-4f76-9d11-d05a284</title>
				<path d="M53.24 839.69 A37.9476 37.9476 0 0 1 6.74 779.71 L7.14 779.44 A37.9338 37.9338 0 0 1 53.24 839.69 Z"
						class="st55"/>
			</g>
			<g id="shape3212-282" v:mID="3212" v:groupContext="shape" transform="translate(16.4678,-37.8892)">
				<title>Sheet.3212</title>
				<path d="M6.02 839.69 A58.0165 58.0165 0 0 1 45.79 823.72 A37.8 37.8 -180 0 0 39.14 817.29 A63.9966 63.9966 -180
							 0 0 18.21 822.2 A55.9636 55.9636 -180 0 0 -0 834.78 A12.3173 12.3173 0 0 1 6.02 839.69 Z" class="st56"/>
			</g>
			<g id="shape3213-284" v:mID="3213" v:groupContext="shape" transform="translate(-6.99441E-14,-3.92727)">
				<title>Sheet.3213</title>
				<path d="M3.7 820.99 A79.7057 79.7057 -180 0 0 0 832.69 A34.8991 34.8991 -180 0 0 2.77 836.79 C3.57 837.82 4.33 838.75
							 5.22 839.69 A80.0627 80.0627 0 0 1 10.04 824.21 A12.3173 12.3173 0 0 1 3.7 820.99 Z" class="st56"/>
			</g>
			<g id="shape3214-286" v:mID="3214" v:groupContext="shape" transform="translate(0.0892561,-38.9157)">
				<title>Sheet.3214</title>
				<path d="M7.99 835.72 A53.5537 53.5537 0 0 1 4.91 822.6 A36.3719 36.3719 -180 0 0 0 829.07 A56.633 56.633 -180 0
							 0 2.54 839.69 A12.0049 12.0049 0 0 1 7.99 835.72 Z" class="st57"/>
			</g>
			<g id="shape3215-288" v:mID="3215" v:groupContext="shape" transform="translate(0,-19.2347)">
				<title>Sheet.3215</title>
				<ellipse cx="12.1835" cy="827.509" rx="12.1835" ry="12.1835" class="st58"/>
			</g>
			<g id="shape3216-292" v:mID="3216" v:groupContext="shape" transform="translate(14.4149,-8.12231)">
				<title>Sheet.3216</title>
				<path d="M15.53 838.67 A7.89917 7.89917 0 0 1 17.94 833 A53.0181 53.0181 0 0 1 6.65 824.7 A12.2281 12.2281 0 0 1
							 -0 828.4 A58.4627 58.4627 -180 0 0 6.47 834.11 A54.0892 54.0892 -180 0 0 15.62 839.69 A7.98842 7.98842
							 0 0 1 15.53 838.67 Z" class="st57"/>
			</g>
			<g id="shape3217-294" v:mID="3217" v:groupContext="shape" transform="translate(43.4677,-2.5438)">
				<title>Sheet.3217</title>
				<path d="M14.59 834.02 A53.5537 53.5537 0 0 1 2.28 832.6 A1.82975 1.82975 0 0 1 2.28 833.09 A7.80991 7.80991 0 0
							 1 -0 838.62 A61.0958 61.0958 -180 0 0 15.26 839.69 A36.6396 36.6396 -180 0 0 20.57 833.71 A51.3223 51.3223
							 0 0 1 14.59 834.02 Z" class="st57"/>
			</g>
			<g id="shape3218-296" v:mID="3218" v:groupContext="shape" transform="translate(29.9008,-1.20496)">
				<title>Sheet.3218</title>
				<ellipse cx="7.94379" cy="831.748" rx="7.94379" ry="7.94379" class="st59"/>
			</g>
			<g id="shape3219-300" v:mID="3219" v:groupContext="shape" transform="translate(16.6463,-30.3024)">
				<title>Sheet.3219</title>
				<path d="M30.97 839.69 A8.16693 8.16693 0 0 1 33.69 835.23 A113.802 113.802 0 0 1 13.79 816.75 A75.466 75.466 0 0
							 1 4.86 803.72 A34.0958 34.0958 -180 0 0 0 805.6 A80.9553 80.9553 -180 0 0 9.6 819.79 A117.997 117.997
							 -180 0 0 30.97 839.69 Z" class="st60"/>
			</g>
			<g id="shape3220-302" v:mID="3220" v:groupContext="shape" transform="translate(47.4842,-20.3504)">
				<title>Sheet.3220</title>
				<ellipse cx="8.4347" cy="831.257" rx="8.4347" ry="8.4347" class="st59"/>
			</g>
			<g id="shape3221-305" v:mID="3221" v:groupContext="shape" transform="translate(61.1851,-18.2529)">
				<title>Sheet.3221</title>
				<path d="M8.88 834.83 L7.32 834.07 L5.98 833.35 L5.71 833.35 L4.55 832.42 L4.24 832.42 L2.86 831.53 A7.85454 7.85454
							 0 0 1 -0 835.63 C0.54 835.99 1.12 836.3 1.7 836.61 L2.05 836.84 L3.61 837.68 L7.45 839.69 A38.514 38.514
							 -180 0 0 8.75 834.74 L8.88 834.83 Z" class="st57"/>
			</g>
			<g id="shape3222-307" v:mID="3222" v:groupContext="shape" transform="translate(0,-19.2347)">
				<title>Sheet.3222</title>
				<ellipse cx="12.1835" cy="827.509" rx="12.1835" ry="12.1835" class="st58"/>
			</g>
			<g id="shape3223-310" v:mID="3223" v:groupContext="shape" transform="translate(29.9008,-1.20496)">
				<title>Sheet.3223</title>
				<ellipse cx="7.94379" cy="831.748" rx="7.94379" ry="7.94379" class="st59"/>
			</g>
		</g>
		<g id="shape3234-313" v:mID="3234" v:groupContext="shape" transform="translate(102.681,-668.242)">
			<title>Sheet.3234</title>
			<desc>Service provider initiates action on customer esource</desc>
			<v:userDefs>
				<v:ud v:nameU="visNavOrder" v:val="VT0(646000):26"/>
			</v:userDefs>
			<v:textBlock v:margins="rect(4,4,4,4)"/>
			<v:textRect cx="129.222" cy="821.692" width="258.45" height="36"/>
			<rect x="0" y="803.692" width="258.444" height="36" class="st5"/>
			<text x="24.22" y="816.29" class="st6" v:langID="1033"><v:paragraph v:horizAlign="1"/><v:tabList/>Service provider initiates <tspan
						x="12.69" dy="1.2em" class="st61">action on customer esource</tspan></text>		</g>
		<g id="shape3235-317" v:mID="3235" v:groupContext="shape" transform="translate(467.028,-665.992)">
			<title>Sheet.3235</title>
			<desc>Azure Resource Manager validates the request and calls Manage...</desc>
			<v:userDefs>
				<v:ud v:nameU="visNavOrder" v:val="VT0(647000):26"/>
			</v:userDefs>
			<v:textBlock v:margins="rect(4,4,4,4)"/>
			<v:textRect cx="158.548" cy="821.692" width="317.1" height="36"/>
			<rect x="0" y="803.692" width="317.097" height="36" class="st5"/>
			<text x="12.8" y="805.49" class="st6" v:langID="1033"><v:paragraph v:horizAlign="1"/><v:tabList/>Azure Resource Manager validates <tspan
						x="29.17" dy="1.2em" class="st61">the request and calls Managed </tspan><tspan x="28.44" dy="1.2em"
						class="st61">Service Resource Provider (RP)</tspan></text>		</g>
		<g id="shape3236-322" v:mID="3236" v:groupContext="shape" transform="translate(896.49,-668.242)">
			<title>Sheet.3236</title>
			<desc>Managed Service RP provides precise RBAC access</desc>
			<v:userDefs>
				<v:ud v:nameU="visNavOrder" v:val="VT0(648000):26"/>
			</v:userDefs>
			<v:textBlock v:margins="rect(4,4,4,4)"/>
			<v:textRect cx="145.624" cy="821.692" width="291.25" height="36"/>
			<rect x="0" y="803.692" width="291.248" height="36" class="st5"/>
			<text x="20.39" y="816.29" class="st6" v:langID="1033"><v:paragraph v:horizAlign="1"/><v:tabList/>Managed Service RP provides <tspan
						x="61.06" dy="1.2em" class="st61">precise RBAC access</tspan></text>		</g>
		<g id="shape3237-326" v:mID="3237" v:groupContext="shape" transform="translate(1221.88,-668.242)">
			<title>Sheet.3237</title>
			<desc>Service provider completes action on customer resource</desc>
			<v:userDefs>
				<v:ud v:nameU="visNavOrder" v:val="VT0(649000):26"/>
			</v:userDefs>
			<v:textBlock v:margins="rect(4,4,4,4)"/>
			<v:textRect cx="145.624" cy="821.692" width="291.25" height="36"/>
			<rect x="0" y="803.692" width="291.248" height="36" class="st5"/>
			<text x="31.01" y="816.29" class="st6" v:langID="1033"><v:paragraph v:horizAlign="1"/><v:tabList/>Service provider completes <tspan
						x="25.51" dy="1.2em" class="st61">action on customer resource</tspan></text>		</g>
		<g id="shape3241-330" v:mID="3241" v:groupContext="shape" transform="translate(418.994,-329.625)">
			<title>Sheet.3241</title>
			<desc>Tags</desc>
			<v:userDefs>
				<v:ud v:nameU="visNavOrder" v:val="VT0(652000):26"/>
			</v:userDefs>
			<v:textBlock v:margins="rect(4,4,4,4)" v:verticalAlign="0"/>
			<v:textRect cx="60.4439" cy="827.325" width="120.89" height="24.7342"/>
			<rect x="0" y="814.958" width="120.888" height="24.7342" class="st5"/>
			<text x="42.98" y="833.36" class="st62" v:langID="1033"><v:paragraph v:horizAlign="1"/><v:tabList/>Tags</text>		</g>
		<g id="shape3242-333" v:mID="3242" v:groupContext="shape" transform="translate(559.125,-329.625)">
			<title>Sheet.3242</title>
			<desc>RBAC</desc>
			<v:userDefs>
				<v:ud v:nameU="visNavOrder" v:val="VT0(653000):26"/>
			</v:userDefs>
			<v:textBlock v:margins="rect(4,4,4,4)" v:verticalAlign="0"/>
			<v:textRect cx="60.4439" cy="827.325" width="120.89" height="24.7342"/>
			<rect x="0" y="814.958" width="120.888" height="24.7342" class="st5"/>
			<text x="39.48" y="833.36" class="st62" v:langID="1033"><v:paragraph v:horizAlign="1"/><v:tabList/>RBAC</text>		</g>
		<g id="shape3243-336" v:mID="3243" v:groupContext="shape" transform="translate(694.623,-329.625)">
			<title>Sheet.3243</title>
			<desc>ARM templates</desc>
			<v:userDefs>
				<v:ud v:nameU="visNavOrder" v:val="VT0(654000):26"/>
			</v:userDefs>
			<v:textBlock v:margins="rect(4,4,4,4)" v:verticalAlign="0"/>
			<v:textRect cx="72.815" cy="827.325" width="145.63" height="24.7342"/>
			<rect x="0" y="814.958" width="145.63" height="24.7342" class="st5"/>
			<text x="14.83" y="833.36" class="st62" v:langID="1033"><v:paragraph v:horizAlign="1"/><v:tabList/>ARM templates</text>		</g>
		<g id="shape3244-339" v:mID="3244" v:groupContext="shape" transform="translate(413.495,-203.625)">
			<title>Sheet.3244</title>
			<desc>Locks</desc>
			<v:userDefs>
				<v:ud v:nameU="visNavOrder" v:val="VT0(655000):26"/>
			</v:userDefs>
			<v:textBlock v:margins="rect(4,4,4,4)" v:verticalAlign="0"/>
			<v:textRect cx="72.815" cy="827.325" width="145.63" height="24.7342"/>
			<rect x="0" y="814.958" width="145.63" height="24.7342" class="st5"/>
			<text x="52" y="833.36" class="st62" v:langID="1033"><v:paragraph v:horizAlign="1"/><v:tabList/>Locks</text>		</g>
		<g id="shape3245-342" v:mID="3245" v:groupContext="shape" transform="translate(553.81,-203.625)">
			<title>Sheet.3245</title>
			<desc>Policy</desc>
			<v:userDefs>
				<v:ud v:nameU="visNavOrder" v:val="VT0(656000):26"/>
			</v:userDefs>
			<v:textBlock v:margins="rect(4,4,4,4)" v:verticalAlign="0"/>
			<v:textRect cx="72.815" cy="827.325" width="145.63" height="24.7342"/>
			<rect x="0" y="814.958" width="145.63" height="24.7342" class="st5"/>
			<text x="50.32" y="833.36" class="st62" v:langID="1033"><v:paragraph v:horizAlign="1"/><v:tabList/>Policy</text>		</g>
		<g id="shape3246-345" v:mID="3246" v:groupContext="shape" transform="translate(694.125,-203.625)">
			<title>Sheet.3246</title>
			<desc>Activity logs</desc>
			<v:userDefs>
				<v:ud v:nameU="visNavOrder" v:val="VT0(657000):26"/>
			</v:userDefs>
			<v:textBlock v:margins="rect(4,4,4,4)" v:verticalAlign="0"/>
			<v:textRect cx="72.815" cy="827.325" width="145.63" height="24.7342"/>
			<rect x="0" y="814.958" width="145.63" height="24.7342" class="st5"/>
			<text x="26.09" y="833.36" class="st62" v:langID="1033"><v:paragraph v:horizAlign="1"/><v:tabList/>Activity logs</text>		</g>
		<g id="shape3247-348" v:mID="3247" v:groupContext="shape" transform="translate(545.645,-492.758)">
			<title>Sheet.3247</title>
			<desc>Control plane</desc>
			<v:userDefs>
				<v:ud v:nameU="visNavOrder" v:val="VT0(658000):26"/>
			</v:userDefs>
			<v:textBlock v:margins="rect(4,4,4,4)" v:verticalAlign="0"/>
			<v:textRect cx="72.815" cy="827.325" width="145.63" height="24.7342"/>
			<rect x="0" y="814.958" width="145.63" height="24.7342" class="st5"/>
			<text x="21.72" y="833.36" class="st62" v:langID="1033"><v:paragraph v:horizAlign="1"/><v:tabList/>Control plane</text>		</g>
		<g id="shape3248-351" v:mID="3248" v:groupContext="shape" transform="translate(505.125,-463.492)">
			<title>Sheet.3248</title>
			<desc>Azure Resource Management</desc>
			<v:userDefs>
				<v:ud v:nameU="visNavOrder" v:val="VT0(659000):26"/>
			</v:userDefs>
			<v:textBlock v:margins="rect(4,4,4,4)" v:verticalAlign="0"/>
			<v:textRect cx="117" cy="827.325" width="234" height="24.7342"/>
			<rect x="0" y="814.958" width="234" height="24.7342" class="st5"/>
			<text x="6.63" y="833.36" class="st63" v:langID="1033"><v:paragraph v:horizAlign="1"/><v:tabList/>Azure Resource Management</text>		</g>
		<g id="shape3249-354" v:mID="3249" v:groupContext="shape" transform="translate(298.125,-364.492)">
			<title>Sheet.3249</title>
			<v:userDefs>
				<v:ud v:nameU="visNavOrder" v:val="VT0(660000):26"/>
			</v:userDefs>
			<path d="M0 839.69 L86.94 839.69" class="st64"/>
		</g>
		<g id="shape3251-360" v:mID="3251" v:groupContext="shape" transform="translate(847.125,-364.492)">
			<title>Sheet.3251</title>
			<v:userDefs>
				<v:ud v:nameU="visNavOrder" v:val="VT0(661000):26"/>
			</v:userDefs>
			<path d="M0 839.69 L77.94 839.69" class="st64"/>
		</g>
		<g id="shape3252-365" v:mID="3252" v:groupContext="shape" transform="translate(1868.78,565.22) rotate(90)">
			<title>Sheet.3252</title>
			<v:userDefs>
				<v:ud v:nameU="visNavOrder" v:val="VT0(662000):26"/>
			</v:userDefs>
			<path d="M11.7 839.69 L12.06 839.69 L53.21 839.69" class="st66"/>
		</g>
		<g id="shape3253-373" v:mID="3253" v:groupContext="shape" transform="translate(1117.12,-364.492)">
			<title>Sheet.3253</title>
			<v:userDefs>
				<v:ud v:nameU="visNavOrder" v:val="VT0(663000):26"/>
			</v:userDefs>
			<path d="M0 839.69 L86.94 839.69" class="st64"/>
		</g>
		<g id="shape3254-378" v:mID="3254" v:groupContext="shape" transform="translate(1283.22,-454.492)">
			<title>Sheet.3254</title>
			<desc>200+ existing Azure services</desc>
			<v:userDefs>
				<v:ud v:nameU="visNavOrder" v:val="VT0(664000):26"/>
			</v:userDefs>
			<v:textBlock v:margins="rect(4,4,4,4)" v:verticalAlign="0"/>
			<v:textRect cx="80.4375" cy="815.471" width="160.88" height="48.4427"/>
			<rect x="0" y="791.249" width="160.875" height="48.4427" class="st5"/>
			<text x="22.63" y="811.45" class="st6" v:langID="1033"><v:paragraph v:horizAlign="1"/><v:tabList/>200+ existing <tspan
						x="20.43" dy="1.2em" class="st61">Azure services</tspan></text>		</g>
		<g id="shape3255-382" v:mID="3255" v:groupContext="shape" transform="translate(1292.62,-445.492)">
			<title>Sheet.3255</title>
			<v:userDefs>
				<v:ud v:nameU="visNavOrder" v:val="VT0(665000):26"/>
			</v:userDefs>
			<path d="M0 839.69 L144 839.69" class="st67"/>
		</g>
		<g id="shape3256-385" v:mID="3256" v:groupContext="shape" transform="translate(1291.38,-348.758)">
			<title>Sheet.3256</title>
			<desc>Storage</desc>
			<v:userDefs>
				<v:ud v:nameU="visNavOrder" v:val="VT0(666000):26"/>
			</v:userDefs>
			<v:textBlock v:margins="rect(4,4,4,4)" v:verticalAlign="0"/>
			<v:textRect cx="72.815" cy="827.325" width="145.63" height="24.7342"/>
			<rect x="0" y="814.958" width="145.63" height="24.7342" class="st5"/>
			<text x="42" y="835.16" class="st68" v:langID="1033"><v:paragraph v:horizAlign="1"/><v:tabList/>Storage</text>		</g>
		<g id="shape3262-388" v:mID="3262" v:groupContext="shape" transform="translate(1302.24,-229.492)">
			<title>Sheet.3262</title>
			<desc>Compute</desc>
			<v:userDefs>
				<v:ud v:nameU="visNavOrder" v:val="VT0(667000):26"/>
			</v:userDefs>
			<v:textBlock v:margins="rect(4,4,4,4)" v:verticalAlign="0"/>
			<v:textRect cx="60.4439" cy="827.325" width="120.89" height="24.7342"/>
			<rect x="0" y="814.958" width="120.888" height="24.7342" class="st5"/>
			<text x="23.71" y="835.16" class="st68" v:langID="1033"><v:paragraph v:horizAlign="1"/><v:tabList/>Compute</text>		</g>
		<g id="shape3263-391" v:mID="3263" v:groupContext="shape" transform="translate(1295.5,-121.492)">
			<title>Sheet.3263</title>
			<desc>Networking</desc>
			<v:userDefs>
				<v:ud v:nameU="visNavOrder" v:val="VT0(668000):26"/>
			</v:userDefs>
			<v:textBlock v:margins="rect(4,4,4,4)" v:verticalAlign="0"/>
			<v:textRect cx="72.815" cy="827.325" width="145.63" height="24.7342"/>
			<rect x="0" y="814.958" width="145.63" height="24.7342" class="st5"/>
			<text x="26.37" y="835.16" class="st68" v:langID="1033"><v:paragraph v:horizAlign="1"/><v:tabList/>Networking</text>		</g>
		<g id="shape3264-394" v:mID="3264" v:groupContext="shape" transform="translate(1289.56,-19.125)">
			<title>Sheet.3264</title>
			<desc>PaaS services</desc>
			<v:userDefs>
				<v:ud v:nameU="visNavOrder" v:val="VT0(669000):26"/>
			</v:userDefs>
			<v:textBlock v:margins="rect(4,4,4,4)" v:verticalAlign="0"/>
			<v:textRect cx="72.815" cy="827.325" width="145.63" height="24.7342"/>
			<rect x="0" y="814.958" width="145.63" height="24.7342" class="st5"/>
			<text x="20.54" y="835.16" class="st68" v:langID="1033"><v:paragraph v:horizAlign="1"/><v:tabList/>PaaS services</text>		</g>
		<g id="shape3265-397" v:mID="3265" v:groupContext="shape" transform="translate(19.125,-760.492)">
			<title>Sheet.3265</title>
			<desc>Azure delegated resource management creates logical (control ...</desc>
			<v:userDefs>
				<v:ud v:nameU="visNavOrder" v:val="VT0(670000):26"/>
			</v:userDefs>
			<v:textBlock v:margins="rect(4,4,4,4)"/>
			<v:textRect cx="630" cy="821.692" width="1260" height="36"/>
			<rect x="0" y="803.692" width="1260" height="36" class="st5"/>
			<text x="41.3" y="810.89" class="st69" v:langID="1033"><v:paragraph v:horizAlign="1"/><v:tabList/>Azure delegated resource management creates logical (control plane) <tspan
						x="141.06" dy="1.2em" class="st61">access to customer</tspan>s environment for the service provider</text>		</g>
	</g>
</svg>
