<svg xmlns="http://www.w3.org/2000/svg" width="2042.976" height="1119.552" viewBox="0 0 1532.25 839.692" color-interpolation-filters="sRGB" fill="none" fill-rule="evenodd" font-size="12" overflow="visible" stroke-linecap="square" stroke-miterlimit="3" xmlns:v="https://vecta.io/nano"><style><![CDATA[.AS{font-family:Segoe UI}.AT{fill:#000}.AU{font-weight:bold}.AV{font-size:1.5em}.AW{fill:#fff}.AX{fill:#f2f2f2}.AY{font-size:1.33333em}.AZ{fill:#50e6ff}.Aa{font-size:1em}.Ab{stroke:#000}.Ac{fill:#0078d4}.Ad{fill:#9cebff}.Ae{fill:#107c10}.Af{font-size:1.16666em}.Ag{marker-end:url(#T)}.Ah{overflow:visible}.Ai{stroke-linejoin:round}.Aj{fill:url(#A)}.Ak{fill:#949494}.Al{fill:#32bedd}.Am{fill-opacity:.55}.An{fill:url(#L)}.Ao{stroke-width:.373}.Ap{stroke-linecap:round}]]></style><defs><linearGradient id="A" x1="0" y1="1" x2="0" y2="0"><stop offset="0" stop-color="#32bedd"/><stop offset=".175" stop-color="#32caea"/><stop offset=".41" stop-color="#32d2f2"/><stop offset=".775" stop-color="#32d4f5"/></linearGradient><linearGradient id="B" x1="1" y1="0" x2="1" y2="1"><stop offset="0" stop-color="#c69aeb"/><stop offset="1" stop-color="#6f4bb2"/></linearGradient><linearGradient id="C" x1="0" y1="1" x2="0" y2="0"><stop offset="0" stop-color="#0078d4"/><stop offset=".5" stop-color="#4093e6"/><stop offset=".775" stop-color="#5ea0ef"/></linearGradient><linearGradient id="D" x1=".499" y1="-.207" x2="1.207" y2=".499"><stop offset="0" stop-color="#5ea0ef"/><stop offset=".37" stop-color="#9fc6f5"/><stop offset=".8" stop-color="#e4effc"/><stop offset="1" stop-color="#fff"/></linearGradient><linearGradient id="E" x1="1.207" y1=".501" x2=".499" y2="1.207"><stop offset="0" stop-color="#fff"/><stop offset=".2" stop-color="#e4effc"/><stop offset=".63" stop-color="#9fc6f5"/><stop offset="1" stop-color="#5ea0ef"/></linearGradient><linearGradient id="F" x1="0" y1="1" x2="0" y2="0"><stop offset="0" stop-color="#773adc"/><stop offset="1" stop-color="#a67af4"/></linearGradient><linearGradient id="G" x1="0" y1="1" x2="0" y2="0"><stop offset="0" stop-color="#198ab3"/><stop offset=".16" stop-color="#1f9ac2"/><stop offset=".5" stop-color="#29bade"/><stop offset=".8" stop-color="#30cdef"/><stop offset="1" stop-color="#32d4f5"/></linearGradient><linearGradient id="H" x1="0" y1="1" x2="0" y2="0"><stop offset="0" stop-color="#1988d9"/><stop offset=".9" stop-color="#54aef0"/></linearGradient><radialGradient id="I" cx="1" cy="0" r="1.4"><stop offset="0" stop-color="#5ea0ef"/><stop offset=".28" stop-color="#5b9fee"/><stop offset=".47" stop-color="#529bec"/><stop offset=".64" stop-color="#4394e7"/><stop offset=".79" stop-color="#2d8be1"/><stop offset=".93" stop-color="#117fd9"/><stop offset="1" stop-color="#0078d4"/></radialGradient><radialGradient id="J" cx="0" cy="0" r="1.4"><stop offset=".18" stop-color="#5ea0ef"/><stop offset="1" stop-color="#0078d4"/></radialGradient><linearGradient id="K" x1=".004" y1="1.004" x2="-.004" y2=".004"><stop offset="0" stop-color="#ccc"/><stop offset="1" stop-color="#fcfcfc"/></linearGradient><linearGradient id="L" x1="0" y1="1" x2="0" y2="0"><stop offset="0" stop-color="#ccc"/><stop offset="1" stop-color="#fcfcfc"/></linearGradient><path id="M" d="M136.354 379.622h84.18c.801-.001 1.57.317 2.137.883s.884 1.335.883 2.137v16.21h-90.24v-16.21c-.001-.805.319-1.577.89-2.144s1.345-.883 2.15-.876z"/><path id="N" d="M145.666 410.483l1.956-1.961c.346-.347.907-.348 1.254-.002l14.5 14.454a1.78 1.78 0 0 1 .004 2.517l-1.956 1.961-15.755-15.711c-.347-.346-.348-.907-.002-1.254v-.005z"/><path id="O" d="M147.911 439.82l-1.969-1.963c-.347-.346-.348-.907-.002-1.254l15.485-15.534 1.961 1.956a1.78 1.78 0 0 1 .004 2.517l-14.242 14.282c-.346.347-.907.348-1.254.002l.016-.007z"/><path id="P" d="M168.999 439.056c.003.849.691 1.537 1.54 1.54h22.24c.41.001.803-.16 1.094-.449s.455-.681.456-1.091v-2.28c.001-.412-.162-.807-.452-1.098s-.686-.454-1.098-.452h-22.24c-.41.001-.802.165-1.091.456s-.45.684-.449 1.094v2.28z"/><path id="Q" d="M1333.895 420.613h29.026v18.497h-29.026z"/><path id="R" d="M1365.482 420.613h28.884v18.497h-28.884z"/><path d="M3 1L0 0l3-1v2" stroke="none" id="S"/><marker id="T" refX="-8.04" orient="auto" markerUnits="strokeWidth" fill-opacity="1" class="AT Ab Ah"><use href="#S" transform="scale(-2.68)" stroke-opacity="1" class="Ao"/></marker><marker id="U" refX="7.8" orient="auto" markerUnits="strokeWidth" fill-opacity="1" class="AT Ab Ah"><use href="#S" transform="scale(2.68)" stroke-opacity="1" class="Ao"/></marker></defs><g class="AW"><path d="M0 0h1532.25v839.692H0z"/><path d="M397.125 317.7h450v342h-450zm-333-103.5h234v573.75h-234z" stroke-width=".5" class="Ab Ai"/></g><circle cx="82.125" cy="152.325" r="16.875" class="Ae"/><text x="78.1" y="156.528" class="AS AU AW Af">1</text><circle cx="464.625" cy="152.325" r="16.875" class="Ae"/><text x="460.6" y="156.528" class="AS AU AW Af">2</text><circle cx="888.462" cy="152.325" r="16.875" class="Ae"/><text x="884.437" y="156.528" class="AS AU AW Af">3</text><circle cx="1219.505" cy="152.325" r="16.875" class="Ae"/><text x="1215.48" y="156.528" class="AS AU AW Af">4</text><text x="949.525" y="786.598" class="AS AT AU AV">Microsoft Entra ID</text><text x="162.435" y="336.598" class="AS AT AU AV">CLI</text><text x="941.415" y="542.688" class="AS AT AU AV">Managed Services RP</text><path d="M987.685 738.942c3.03 1.89 8.06 3.99 13.38 3.99 4.85 0 9.35-1.41 13.08-3.8 0 0 .01 0 .02-.01l14.09-8.8v31.78c-2.24 0-4.48-.61-6.44-1.82l-34.13-21.34z" fill="#225086"/><path d="M1019.3 641.198l-58.53 66.02c-4.52 5.1-3.34 12.81 2.52 16.48l24.39 15.24c3.03 1.89 8.07 3.99 13.39 3.99 4.84 0 9.35-1.4 13.08-3.8l14.1-8.81-34.06-21.29 34.07-38.43v-33.36c-3.31 0-6.61 1.32-8.95 3.96h-.01z" fill="#6df"/><path d="M994.193 709.026l.41.25 33.65 21.04h0v-59.71h0l-34.06 38.42z" fill="#cbf8ff"/><path d="M1093.208 723.694c5.86-3.66 7.04-11.37 2.52-16.48l-38.4-43.32a24.27 24.27 0 0 0-10.25-2.27c-7.22 0-13.67 3.12-17.96 8.01l-.85.96 34.05 38.43-34.06 21.29v31.78c2.24 0 4.47-.61 6.42-1.82l58.53-36.59v.01z" fill="#074793"/><path d="M1028.26 637.24v33.36l.85-.96c4.29-4.89 10.74-8 17.96-8 3.69 0 7.15.83 10.25 2.27l-20.13-22.71c-2.33-2.63-5.64-3.95-8.94-3.95l.01-.01z" fill="#0294e4"/><path d="M1062.318 709.028l-34.06-38.42v59.7l34.06-21.28z" fill="#96bcc2"/><path d="M133.314 398.855h90.25v50.32c-.003 1.661-1.349 3.007-3.01 3.01h-84.22c-1.665.003-3.017-1.345-3.02-3.01v-50.32z" class="Aj"/><use href="#M" class="Ac"/><use href="#N" class="AX"/><use href="#O" fill="#e6e6e6"/><use href="#P" class="AX"/><g transform="translate(453.75 -359.709)"><path d="M45.39 790.243l-6.18-6.14c-.305-.303-.721-.465-1.15-.45l-11.48.42c-.385.016-.749.176-1.02.45L.45 809.493c-.288.286-.449.675-.449 1.08s.162.794.449 1.08l16.72 16.63c.288.288.678.45 1.085.45s.797-.162 1.085-.45l25.14-25c.256-.254.412-.591.44-.95l.92-10.88a1.52 1.52 0 0 0-.45-1.21zm-7.47 4.08a2.78 2.78 0 0 1-2.758-2.792 2.78 2.78 0 0 1 2.785-2.765 2.78 2.78 0 0 1 2.773 2.777c-.001.74-.298 1.45-.823 1.971s-1.237.813-1.977.809z" fill="#773adc"/><path d="M37.925 786.562c-2.75.014-4.968 2.253-4.958 5.003s2.246 4.972 4.995 4.965 4.975-2.238 4.973-4.988c-.004-1.325-.534-2.594-1.473-3.528s-2.212-1.456-3.537-1.452zm2.74 5.53c-.266 1.378-1.513 2.345-2.914 2.26s-2.521-1.195-2.619-2.595.858-2.655 2.233-2.934a2.77 2.77 0 0 1 3.3 3.27z" fill="#341a6e"/><path d="M45.39 801.22l-6.19-6.16c-.301-.302-.714-.465-1.14-.45l-11.48.42a1.56 1.56 0 0 0-1.03.45L.45 820.45c-.289.285-.452.674-.452 1.08s.163.795.452 1.08l16.74 16.64a1.54 1.54 0 0 0 2.16 0l25.13-25.01a1.53 1.53 0 0 0 .44-.95l.92-10.88c.032-.444-.132-.879-.45-1.19zm-7.46 4.06a2.78 2.78 0 0 1-2.768-2.789 2.78 2.78 0 0 1 2.788-2.768 2.78 2.78 0 0 1 2.769 2.788 2.79 2.79 0 0 1-2.79 2.77z" fill="url(#B)" transform="translate(5.538)"/><path d="M43.461 797.527c-2.75.014-4.968 2.253-4.958 5.003s2.246 4.972 4.995 4.965 4.975-2.238 4.973-4.988a5 5 0 0 0-5.01-4.98zm2.74 5.52c-.266 1.38-1.514 2.348-2.916 2.262s-2.523-1.2-2.618-2.602.866-2.656 2.244-2.93c.914-.192 1.864.089 2.527.748s.95 1.607.763 2.522z" fill="#552f99"/><path d="M46.2 803.053c-.266 1.38-1.514 2.348-2.916 2.262s-2.523-1.2-2.618-2.602.866-2.656 2.244-2.93c.914-.192 1.864.089 2.527.748s.95 1.607.763 2.522zm-5.538-10.96c-.266 1.38-1.514 2.348-2.916 2.262s-2.523-1.2-2.618-2.602.866-2.656 2.244-2.93a2.77 2.77 0 0 1 3.29 3.27z" class="AW"/></g><path d="M741.75 471.069c-.002.174.091.336.242.423l3.508 1.967 5.92 3.41c.242.138.551.058.695-.181l1.995-3.389c.116-.226.037-.504-.181-.635l-6.949-3.925c-.147-.091-.237-.25-.242-.423l.002-31.187c-.002-.174.091-.336.242-.423l6.948-3.927c.218-.131.297-.408.181-.635l-1.991-3.385c-.059-.126-.166-.222-.297-.267s-.275-.036-.399.026l-5.805 3.352-3.63 2.03c-.151.087-.243.249-.242.423l.002 36.747z" class="Ak"/><path d="M746.71 436.886l.18-.18 6.95-3.93c.118-.05.208-.15.243-.274a.42.42 0 0 0-.062-.361l-1.991-3.385c-.044-.13-.145-.233-.274-.28a.45.45 0 0 0-.39.039l-5.835 3.362-3.6 2.02s-.15 0-.18.18l2.72 1.54 2.24 1.27zm7.13 35.724l-6.95-3.93c-.093-.07-.166-.164-.212-.272l-4.898 3.022h.15l3.48 1.96 6.04 3.36a.45.45 0 0 0 .374.062c.128-.035.234-.124.291-.244l1.995-3.389c.048-.112.046-.239-.006-.349s-.149-.192-.266-.226z" fill="#a3a3a3"/><path d="M793.12 471.069c.002.174-.091.336-.242.423l-3.498 1.967-5.93 3.41c-.242.138-.551.058-.695-.181l-1.995-3.389c-.116-.226-.037-.504.181-.635l6.959-3.925c.147-.091.237-.25.242-.423l-.002-31.187c.002-.174-.091-.336-.242-.423l-6.948-3.927c-.218-.131-.297-.408-.181-.635l1.991-3.385c.059-.126.166-.222.297-.267s.275-.036.399.026l5.805 3.292 3.62 2.03c.151.087.243.249.242.423l-.002 36.807z" class="Ak"/><path d="M788.164 436.886l-.18-.18-6.95-3.93c-.118-.05-.208-.15-.243-.274a.42.42 0 0 1 .062-.361l2.001-3.385c.044-.13.145-.233.274-.28a.45.45 0 0 1 .39.039l5.825 3.292 3.6 2.03.18.18-2.72 1.54-2.24 1.33zm-7.123 35.724l6.95-3.93c.093-.07.166-.164.212-.272l4.888 3.022-3.47 1.96-6.05 3.36a.45.45 0 0 1-.374.062c-.128-.035-.234-.124-.291-.244l-1.985-3.389c-.121-.193-.067-.446.121-.574z" fill="#a3a3a3"/><path d="M783.487 443.417v18.55l-16.08 9.34v-18.58l16.08-9.31z" class="Al"/><path d="M783.48 443.412l-16.04 9.34-16.08-9.34 16.08-9.33 16.04 9.33z" class="Ad"/><path d="M767.41 452.757v18.55l-16.05-9.34v-18.55l16.05 9.34z" class="AZ"/><path d="M751.36 461.967l16.05-9.24v18.58l-16.05-9.34z" class="Ad"/><path d="M783.487 461.967l-16.08-9.24v18.58l16.08-9.34z" class="AZ"/><g transform="translate(91.688 -171.414)"><path d="M39.228 714.29h93.04v51.87a3.11 3.11 0 0 1-3.11 3.11h-86.82a3.11 3.11 0 0 1-3.11-3.11v-51.87z" fill="url(#C)"/><path d="M42.348 694.469h86.79a3.11 3.11 0 0 1 3.11 3.11v16.71h-93.02v-16.71a3.11 3.11 0 0 1 3.12-3.11z" class="Ac"/><path d="M28.7 817.66h2.68v21.17a.86.86 0 0 1-.859.859l-2.681.001a.86.86 0 0 1-.859-.859l-.001-19.451a1.72 1.72 0 0 1 1.72-1.72h0z" fill="url(#D)" transform="matrix(.708106 -.706106 .706106 .708106 -540.135 180.163)"/><path d="M59.414 743.216l-1.892-1.898a1.72 1.72 0 0 1 .003-2.432l14.013-13.974a.86.86 0 0 1 1.215.002l1.893 1.898a.86.86 0 0 1-.002 1.215l-15.231 15.189z" class="AX"/><path d="M66.92 817.64h2.68a.86.86 0 0 1 .859.859l.001 21.191h-2.68a1.72 1.72 0 0 1-1.72-1.72v-19.48a.86.86 0 0 1 .859-.859l.001.009z" fill="url(#E)" transform="matrix(-.708106 -.706106 .706106 -.708106 -432.037 1381.34)"/><path d="M95.726 726.822l1.892-1.898a.86.86 0 0 1 1.215-.002l14.014 13.974a1.72 1.72 0 0 1 .003 2.432l-1.892 1.898-15.224-15.181a.86.86 0 0 1-.013-1.227zm-18.538 31.432c-.103.322.074.667.397.771l3.036.969c.322.103.667-.074.771-.397l12.363-38.627c.103-.322-.074-.667-.397-.771l-3.036-.969c-.322-.103-.667.074-.771.397l-12.363 38.627z" class="AX"/></g><path d="M133.546 661.785h89.95v50.14a3.01 3.01 0 0 1-3 3.01h-83.94a3.01 3.01 0 0 1-3.01-3.01v-50.14z" class="Aj"/><path d="M136.576 642.608h83.9a3.01 3.01 0 0 1 3.02 3.02v16.15h-89.95v-16.15a3.01 3.01 0 0 1 3.03-3.02z" fill="#198ab3"/><path d="M133.546 661.785h23.58v53.15h-20.56a2.99 2.99 0 0 1-3.02-2.99v-50.16z" class="Ad"/><path d="M157.126 703.287h66.37v8.68a2.99 2.99 0 0 1-2.99 2.99h-63.38v-11.67z" class="Al"/><path d="M1359.68 521.609h-2.41c-.93-.002-1.687-.75-1.7-1.68v-6.6c.002-.938.762-1.698 1.7-1.7h2.41a1.7 1.7 0 0 1 1.7 1.7v6.6a1.7 1.7 0 0 1-1.7 1.68zm12.34-1.68v-6.6c-.002-.938-.762-1.698-1.7-1.7h-2.4c-.938.002-1.698.762-1.7 1.7v6.6c.002.938.762 1.698 1.7 1.7h2.4c.938-.002 1.698-.762 1.7-1.7zm-10.64 61.31v-5.04c-.002-.844-.686-1.528-1.53-1.53h-2.76c-.407-.002-.798.159-1.087.446s-.452.677-.453 1.084v5.04c.001.407.164.797.453 1.084s.68.447 1.087.446h2.76c.844-.002 1.528-.686 1.53-1.53zm10.64 0v-5.04c-.002-.844-.686-1.528-1.53-1.53h-2.73c-.407-.002-.798.159-1.087.446s-.452.677-.453 1.084v5.04c.001.407.164.797.453 1.084s.68.447 1.087.446h2.74c.84-.007 1.518-.69 1.52-1.53zm18.97-36.02h7.03a1.76 1.76 0 0 0 1.75-1.76v-2.35a1.76 1.76 0 0 0-1.76-1.75h-7.02a1.76 1.76 0 0 0-1.76 1.75v2.35a1.76 1.76 0 0 0 1.76 1.76h0zm0 10.74h7.03a1.76 1.76 0 0 0 1.75-1.76v-2.34c.001-.467-.184-.916-.514-1.246s-.779-.515-1.246-.514h-7.02c-.467-.001-.916.184-1.246.514s-.515.779-.514 1.246v2.34a1.76 1.76 0 0 0 1.76 1.76h0zm-60.84-10.74h4.86a1.52 1.52 0 0 0 1.52-1.52v-2.82a1.52 1.52 0 0 0-1.52-1.52h-4.86a1.52 1.52 0 0 0-1.52 1.52v2.82a1.52 1.52 0 0 0 1.52 1.52zm0 10.75h4.86a1.52 1.52 0 0 0 1.52-1.53v-2.82a1.52 1.52 0 0 0-1.52-1.52h-4.86a1.52 1.52 0 0 0-1.52 1.52v2.82a1.52 1.52 0 0 0 1.52 1.52v.01z" fill="#773adc"/><path d="M1335.483 572.748a3.48 3.48 0 0 0 3.48 3.48h49.67a3.48 3.48 0 0 0 3.48-3.48v-50.18a3.48 3.48 0 0 0-3.48-3.48h-49.67a3.48 3.48 0 0 0-3.48 3.48v50.18z" fill="url(#F)"/><path d="M1376.437 540.074v14.25l-12.22 7.15v-14.27l12.22-7.13z" class="AZ"/><path d="M1376.441 540.08l-12.22 7.15-12.26-7.15 12.26-7.16 12.22 7.16z" fill="#c3f1ff"/><path d="M1364.221 547.234v14.24l-12.26-7.15v-14.25l12.26 7.16z" class="Ad"/><path d="M1351.961 554.324l12.26-7.12v14.27l-12.26-7.15z" fill="#c3f1ff"/><path d="M1376.437 554.324l-12.22-7.12v14.27l12.22-7.15z" class="Ad"/><g class="Ac"><path d="M485.723 546.541c-.34-.03-.69-.03-1.04-.03l.02-.02c-3.67 0-7.19 1.46-9.78 4.05-2.59 2.6-4.05 6.11-4.05 9.78v14.4h-5.93v-14.4c0-5.24 2.08-10.26 5.79-13.97 3.3-3.3 7.64-5.31 12.26-5.71h3.18c10.37.74 18.27 9.67 18.29 20.08v14h-5.94v-14c0-7.43-5.62-13.66-12.8-14.18z"/><path d="M510.37 603.866H459v-37.54h51.37v37.54z"/></g><g class="AZ"><path d="M478.76 582.004v.13c0 3.24 2.63 5.86 5.86 5.86h.13c3.24 0 5.87-2.62 5.87-5.86v-.13c0-3.24-2.63-5.86-5.87-5.86h-.13c-3.23 0-5.86 2.62-5.86 5.86z"/><path d="M484.714 582.132h-.05c-1.62 0-2.94 1.32-2.94 2.94v7.95a2.94 2.94 0 0 0 2.94 2.94h.05a2.94 2.94 0 0 0 2.94-2.94v-7.95c0-1.62-1.32-2.94-2.94-2.94z"/></g><ellipse cx="621.684" cy="569.627" rx="8.344" ry="8.377" fill="url(#G)"/><g class="Al"><ellipse cx="645.049" cy="556.533" rx="4.076" ry="4.108"/><ellipse cx="645.049" cy="569.948" rx="4.076" ry="4.108"/><ellipse cx="645.049" cy="583.331" rx="4.076" ry="4.108"/></g><g class="AZ"><ellipse cx="635.742" cy="563.401" rx="4.076" ry="4.108"/><ellipse cx="635.742" cy="576.816" rx="4.076" ry="4.108"/></g><path d="M602.305 559.13a.77.77 0 0 1 .289-.257L621.265 548c.26 0 16.05 8.92 16.05 8.92a.77.77 0 0 0 1.155-.674l.005-3.496a.77.77 0 0 0-.385-.674c-.005-.006-16.565-9.376-16.795-9.246l-23.17 13.29-.35.25 4.53 2.76zm34.95 24.265l-15.22 8.76a1.14 1.14 0 0 1-.35 0v5.14a.64.64 0 0 0 .353 0l16.047-9.18a.77.77 0 0 0 .385-.642l.005-3.408a.77.77 0 0 0-1.22-.674z" class="Ak"/><path d="M621.68 592.255c-.138.029-.28.029-.417 0l-18.673-11.01c-.241-.123-.39-.372-.385-.642l-.005-21.088c-.029-.127-.029-.258 0-.385l-4.43-2.755a.9.9 0 0 0 0 .417v26.543a.77.77 0 0 0 .353.674l23.177 13.286a.77.77 0 0 0 .385 0l-.005-5.04z" fill="#b3b3b3"/><path d="M741.82 544.678l4.39-5.1a2.14 2.14 0 0 1 1.63-.73h42.06c.841-.086 1.679.196 2.297.773s.959 1.392.933 2.237v52.53c-.005.601-.271 1.171-.73 1.56l-4.71 4.31h-43.01l-2.93-1.19.07-54.39z" fill="#005ba1"/><path d="M745.373 544.646l2.68-3.04a1.81 1.81 0 0 1 1.27-.66h39.45c.502-.002.983.197 1.338.552s.553.836.552 1.338v49.92c.007.54-.219 1.057-.62 1.42l-4.2 3.8-40.47-53.33z" class="AW"/><path d="M785.549 544.608h-43.47c-.058 0-.113.023-.154.064s-.064.096-.064.154l-.003 54.353c.023.762.647 1.369 1.41 1.37h42.28c.759.002 1.376-.611 1.38-1.37v-53.16c-.001-.767-.614-1.392-1.38-1.41z" fill="url(#H)"/><path d="M751.931 567.112c.002.557.453 1.008 1.01 1.01h21.82c.557-.002 1.008-.453 1.01-1.01v-6.6c-.002-.557-.453-1.008-1.01-1.01h-21.82c-.557.002-1.008.453-1.01 1.01v6.6z" class="AW"/><path d="M1328.63 462.873c0 1.42 1.14 2.7 2.56 2.7h65.88c1.42 0 2.7-1.14 2.7-2.7v-47.1h-71.14v47.1z" fill="#a0a1a2"/><path d="M1397.07 404.821h-65.88c-1.42 0-2.56 1.28-2.56 2.7v8.11h71.14v-8.11c0-1.42-1.14-2.7-2.7-2.7z" fill="#7a7a7a"/><g fill="#0072c6"><use href="#Q"/><use href="#Q" y="21.058"/></g><use href="#R" class="AW"/><use href="#R" y="21.058" fill="#0072c6"/><path d="M1331.48 404.821c-1.57 0-2.85 1.28-2.85 2.84v10.39 4.7 39.84c0 1.56 1.28 2.84 2.85 2.84h3.13l56.06-60.61h-59.19z" fill-opacity=".2" class="AW"/><path d="M1334.868 689.65c.856.854 2.241.854 3.097 0l11.399-11.399c.854-.856.854-2.241 0-3.097l-.198-.198c-.856-.854-2.241-.854-3.097 0l-11.399 11.399c-.854.856-.854 2.241 0 3.097l.198.198z" fill="#198ab3"/><path d="M1391.456 644.537c-.678-1.666-1.555-3.244-2.61-4.7a21.72 21.72 0 0 0-30.42-4.32l-.21.18a21.51 21.51 0 0 0-7.69 11.59c0 .76-.35 1.53-.45 2.29-1.044 7.031 1.412 14.129 6.58 19.01.237.248.491.478.76.69l.77.63c1.02.801 2.115 1.501 3.27 2.09l.35.21.59.24.49.25.52.2.56.21.48.18.7.21h.38l1.01.27 1.12.25h.27c.29.019.58.019.87 0h.35 3.73.8.41a17.75 17.75 0 0 0 2.65-.52 21.58 21.58 0 0 0 7.69-3.83c1.471-1.143 2.791-2.467 3.93-3.94a21.86 21.86 0 0 0 3.1-21.19zm-5.04-3.24h-4.25c-.706-2.077-1.739-4.029-3.06-5.78 2.924 1.26 5.476 3.25 7.41 5.78h-.1zm-13.61-6.96a11.38 11.38 0 0 1 6.26 6.96h-6.26v-6.96zm0 9.89h7.2c.666 2.394 1.052 4.857 1.15 7.34h-8.35v-7.34zm0 10.12h8.35c-.095 2.496-.481 4.973-1.15 7.38h-7.1v-7.52l-.1.14zm-10.86-4.97c.166-1.789.491-3.559.97-5.29h7.21v7.34h-8.32c.03-.7.07-1.39.14-2.05zm8.18-15.18v6.96h-6.23a11.24 11.24 0 0 1 6.23-6.96zm-10.2 3.69a20.29 20.29 0 0 1 3.83-2.23 21.3 21.3 0 0 0-3.06 5.82h-4.04a19.77 19.77 0 0 1 3.27-3.59zm-5.19 6.2h5.4c-.396 1.53-.677 3.088-.84 4.66 0 .87-.17 1.77-.17 2.68h-6.47c.122-.88.295-1.751.52-2.61.329-1.633.853-3.221 1.56-4.73zm-2.08 10.12h6.36a32.54 32.54 0 0 0 1.12 7.38h-5.4c-1.197-2.289-1.905-4.803-2.08-7.38zm4 10.24h4.21c.707 2.074 1.74 4.022 3.06 5.77a18.48 18.48 0 0 1-7.27-5.77zm13.54 6.96a11.24 11.24 0 0 1-6.23-6.96h6.23v6.96zm0-9.89h-7.28a32.16 32.16 0 0 1-1.11-7.38h8.32v7.45l.07-.07zm5.32 8.43a6.96 6.96 0 0 1-2.54 1.46v-6.96h6.27c-.841 2.114-2.139 4.016-3.8 5.57l.07-.07zm7.59-2.27c-1.226.959-2.57 1.756-4 2.37 1.321-1.751 2.354-3.703 3.06-5.78h4.35a18.62 18.62 0 0 1-3.41 3.41zm5.15-6.19h-5.22a37.03 37.03 0 0 0 1.01-7.38h6.3a18.34 18.34 0 0 1-2.09 7.48v-.1zm-4.21-10.06a37.03 37.03 0 0 0-1.01-7.34h5.26a19.28 19.28 0 0 1 2.08 7.34h-6.33z" fill="url(#I)"/><circle cx="1354.427" cy="667.471" r="14.061" class="AZ"/><circle cx="1354.392" cy="667.227" r="11.033" class="AW"/><path d="M1348.719 667.473l2.78 6.47 2.82-8.32 2.34 4.74 2.88-4.88h4.49c-.1-.552-.237-1.097-.41-1.63h-4.84l-1.88 3.17-2.89-5.5-2.68 7.9-2.44-5.61-2.99 5.47h-1.6c.121.559.295 1.105.52 1.63h2.02l1.88-3.44z" fill="#76bc2d"/><path d="M1029.947 498.209v19.03h-.79c0-.018-.007-.034-.019-.047s-.029-.019-.047-.019a2.71 2.71 0 0 1-.734-.064c-.26-.07-.53-.2-.79-.26h-.07l-41.74-24.05c-.99-.66-3.5-1.65-3.3-2.97l.13-19.02c.066.778.548 1.459 1.26 1.78l43.19 24.9c.198.149.422.26.66.33.721.263 1.483.395 2.25.39zm-.73-22.53c-.522-.059-1.034-.191-1.52-.39a6.85 6.85 0 0 1-.66-.27l-43.19-24.96c-.726-.308-1.215-1.002-1.26-1.79l-.13 19.02c-.2 1.33 2.31 2.32 3.3 2.98l41.74 24.04h.07l.66.2c.034.038.081.061.132.066.268.064.468.064.728.134h.86v-19.03h-.73zm-1.52-22.85c-1.12-.46-42.8-24.77-43.85-25.3-.723-.307-1.211-.996-1.26-1.78l-.13 19.02c-.2 1.32 2.31 2.38 3.3 2.97l41.74 24.05h.07c.253.116.518.203.79.26.27.07.47.07.73.13h.07c.19 0 .39.07.59.07h.2v-19.02a8.43 8.43 0 0 1-2.25-.4z" class="Ac"/><path d="M1059.138 427.206l-28.8 16.57c-.689.33-1.491.33-2.18 0l-27.47-15.65c-.67-.389-1.083-1.105-1.083-1.88s.413-1.491 1.083-1.88l28.8-16.58c.686-.327 1.484-.327 2.17 0l27.48 15.65c.69.376 1.12 1.099 1.12 1.885s-.429 1.509-1.12 1.885z" fill="#003067"/><path d="M1077.175 426.209v.07l-.2.39a2.3 2.3 0 0 1-.93.86l-42.93 24.98c-.665.327-1.377.55-2.11.66-.283.056-.572.08-.86.07h-.2v19.02c.265.013.53-.008.79-.06.499-.046.99-.157 1.46-.33a2.86 2.86 0 0 0 .79-.33l31.37-18.23 2.84-1.66 8.72-5.08c.188-.117.366-.251.53-.4.13-.06.2-.2.33-.33v-.06h.07v-.07c.13-.07.13-.2.19-.33v-.07l.07-.06c0-.13.07-.27.07-.4l.13-19.02a.94.94 0 0 1-.132.383zm0 22.52v.07l-.2.4a2.88 2.88 0 0 1-.93.86l-.33.19-.99.53-.79.46-5.02 2.91-8.79 5.15-3.96 2.31-1.98 1.19-3.96 2.32-5.75 3.3-6.54 3.76-4.82 2.78a5.74 5.74 0 0 1-2.11.72h-.86c-.024.031-.06.048-.099.048s-.075-.018-.099-.048l-.002 19.03h.79c.499-.046.99-.157 1.46-.33.287-.079.556-.215.79-.4l6.74-3.9 3.23-1.85 7.53-4.36 3.96-2.31 2.05-1.19 3.97-2.31 15.45-8.98c.188-.117.366-.251.53-.4.13-.06.2-.2.33-.33v-.06h.07v-.07c.13-.13.13-.26.19-.4 0-.018.007-.034.019-.047s.029-.019.047-.019c.004-.124.074-.264.074-.464l.13-18.95c-.003.142-.049.281-.132.396zm0 22.53v.06l-.2.4c-.26.336-.575.627-.93.86l-42.93 24.9c-.64.385-1.364.612-2.11.66-.283.056-.572.08-.86.07h-.2v19.03h.79c.499-.046.99-.157 1.46-.33 1.98-.79 42-24.44 43.72-25.36.186-.095.363-.205.53-.33l.33-.33v-.07h.07v-.06c.13-.14.13-.27.19-.4.07-.13 0-.07.07-.07 0-.13.07-.33.07-.46l.13-19.02a.96.96 0 0 1-.132.449z" fill="#005ba1"/><path d="M1076.045 472.583l-42.93 24.9c-1.927.99-4.213.99-6.14 0l-43.13-24.9c-1.72-1-1.72-2.51-.07-3.51l43.73 25.24c.244.048.484.112.72.19a6.29 6.29 0 0 0 4.76-.52c.13-.07 42.93-24.87 43-24.97a1.89 1.89 0 0 1 .06 3.57zm-.06-26.09c0 .018-.007.034-.019.047s-.029.019-.047.019c-.004-.006-42.874 24.894-42.934 24.964a6.7 6.7 0 0 1-5.42.26h-.06l-43.73-25.22c-1.65 1-1.65 2.51.07 3.51l43.13 24.9c1.927.99 4.213.99 6.14 0l42.93-24.9a1.89 1.89 0 0 0-.06-3.58zm.06-18.96l-42.93 24.98c-1.942.924-4.198.924-6.14 0l-43.13-24.97c-.762-.242-1.28-.95-1.28-1.75s.518-1.508 1.28-1.75l42.86-24.98c1.93-.994 4.22-.994 6.15 0l43.13 24.97c1.71.99 1.71 2.57.06 3.5zm-16.91-4.1l-27.47-15.65c-.689-.33-1.491-.33-2.18 0l-28.8 16.58c-.67.389-1.083 1.105-1.083 1.88s.413 1.491 1.083 1.88l27.48 15.66c.689.33 1.491.33 2.18 0l28.79-16.58c.68-.379 1.101-1.097 1.101-1.875s-.421-1.496-1.101-1.875v-.02zm14.17 65.8l-.06-8.72c-.002-.097-.054-.185-.138-.234s-.186-.05-.271-.004l-21.4 12.398c-.085.049-.138.14-.139.238l.069 8.722a.27.27 0 0 0 .403.231l21.397-12.401c.084-.047.134-.136.132-.231zm-.14-22.27l-21.4 12.39c-.082.051-.186.053-.27.004s-.135-.139-.133-.236l-.067-8.719c.002-.098.055-.188.139-.238l21.401-12.372a.27.27 0 0 1 .41.231l.06 8.719a.27.27 0 0 1-.132.218zm0-22.51l-21.4 12.4a.27.27 0 0 1-.403-.238l-.067-8.722a.27.27 0 0 1 .139-.238l21.401-12.402a.27.27 0 0 1 .41.231l.06 8.719c.008.102-.043.2-.132.251z" fill="#5ea0ef"/><path d="M1021.853 499.881a3.69 3.69 0 0 1 1.69 2.93v4.83c0 1.09-.76 1.54-1.7.99l-4.21-2.43c-1.011-.656-1.647-1.757-1.71-2.96v-4.83c0-1.09.78-1.51 1.72-.97l4.21 2.44zm-4.21-24.91c-.94-.54-1.72-.12-1.72.96v4.84c.067 1.203.701 2.302 1.71 2.96l4.21 2.43c.94.55 1.7.1 1.7-.99v-4.84c-.059-1.192-.688-2.282-1.69-2.93l-4.21-2.43zm0-22.51c-.94-.54-1.72-.12-1.72.96v4.84c.067 1.203.701 2.302 1.71 2.96l4.21 2.43c.94.55 1.7.1 1.7-.99v-4.83c-.056-1.195-.685-2.29-1.69-2.94l-4.21-2.43z" class="AZ"/><path d="M1390.57 748.183c.28-1.3.42-2.54.42-3.78 0-9.49-7.72-17.2-17.2-17.2-6.62 0-12.58 3.75-15.46 9.64-2.31-2.3-5.44-3.61-8.74-3.61-6.81 0-12.35 5.55-12.35 12.36 0 .93.11 1.86.32 2.82-5.61 2.29-8.94 7.04-8.94 12.81 0 7.78 6.35 13.88 14.46 13.88h.92c.16 7.11 5.98 12.85 13.1 12.85 4.8 0 9.14-2.59 11.43-6.7a9.49 9.49 0 0 0 6.23 2.33c4.89 0 8.94-3.71 9.51-8.48h1.37c8.11 0 14.46-6.1 14.46-13.88 0-6.01-3.64-10.96-9.53-13.04z" fill="#0076d2"/><path d="M1384.767 754.964l1.03-2.46-.3-.26-2.26-1.96.01-1.99 2.55-2.28-1-2.46-.39.02-2.99.22-1.4-1.42.19-3.42-2.45-1.03-.26.3-1.97 2.26-1.98-.01-2.29-2.55-2.46 1 .03.4.21 2.99-1.42 1.39-3.41-.19-1.04 2.45.3.26 2.26 1.97-.01 1.99-2.55 2.28 1 2.46.4-.03 2.99-.2 1.39 1.41-.19 3.41 2.46 1.04.26-.3 1.96-2.26 1.99.01 2.28 2.55 2.47-1-.03-.4-.21-2.99 1.41-1.39 3.42.19zm-12.4-.71c-2.78-1.17-4.07-4.36-2.9-7.13 1.17-2.78 4.36-4.08 7.14-2.91 2.77 1.17 4.07 4.37 2.9 7.14-1.17 2.78-4.37 4.08-7.14 2.9zm-3.239 13.569v-2.72l-.39-.12-2.9-.95-.77-1.87 1.49-3.15-1.92-1.92-.36.19-2.72 1.38-1.87-.78-1.17-3.28h-2.71l-.13.38-.95 2.9-1.87.77-3.15-1.49-1.91 1.92.18.36 1.38 2.72-.78 1.87-3.28 1.17v2.72l.38.12 2.91.95.77 1.87-1.49 3.15 1.91 1.92.36-.18 2.73-1.39 1.86.78 1.18 3.28h2.71l.12-.38.95-2.9 1.87-.77 3.15 1.49 1.92-1.92-.18-.36-1.38-2.72.77-1.87 3.29-1.17zm-11.92 4.24a5.55 5.55 0 0 1-5.55-5.55 5.56 5.56 0 0 1 5.56-5.55c3.06 0 5.55 2.49 5.54 5.55 0 3.07-2.48 5.55-5.55 5.55z" class="AW"/><path d="M1378.371 750.03c-.76 1.82-2.86 2.67-4.68 1.9-1.82-.76-2.67-2.86-1.9-4.68.77-1.81 2.86-2.67 4.68-1.9s2.67 2.86 1.9 4.68zm-17.585 16.485c0 1.97-1.61 3.57-3.58 3.57s-3.57-1.6-3.57-3.58c0-1.97 1.6-3.57 3.58-3.57 1.97 0 3.57 1.6 3.57 3.58z" fill="#b8d432"/><path d="M133.314 255.781h90.25v50.32c-.003 1.661-1.349 3.007-3.01 3.01h-84.22c-1.665.003-3.017-1.345-3.02-3.01v-50.32z" class="Aj"/><use href="#M" y="-143.074" class="Ac"/><use href="#N" y="-143.074" class="AX"/><use href="#O" y="-143.074" fill="#e6e6e6"/><use href="#P" y="-143.074" class="AX"/><text x="129.485" y="480.598" class="AS AT AU AV">Powershell</text><text x="120.495" y="624.598" class="AS AT AU AV">HTTP request</text><text x="122.915" y="750.598" class="AS AT AU AV">Azure portal</text><path d="M601.42 471.806c1.47.92 3.92 1.94 6.51 1.94 2.36 0 4.55-.68 6.37-1.85l6.86-4.28v15.46a5.85 5.85 0 0 1-3.13-.89l-16.61-10.38z" fill="#225086"/><path d="M616.805 424.246l-28.48 32.13c-2.2 2.48-1.63 6.23 1.23 8.01l11.87 7.42c1.47.92 3.92 1.94 6.51 1.94 2.36 0 4.55-.68 6.36-1.85l6.86-4.28-16.57-10.36 16.58-18.7v-16.23c-1.61 0-3.22.64-4.36 1.92h0z" fill="#6df"/><path d="M604.587 457.25l.2.12 16.37 10.24h0v-29.05h0l-16.57 18.69z" fill="#cbf8ff"/><path d="M652.762 464.392c2.86-1.78 3.43-5.54 1.23-8.02l-18.69-21.08c-1.5-.7-3.19-1.1-4.98-1.1-3.51 0-6.65 1.51-8.74 3.89l-.42.47 16.57 18.7-16.57 10.36v15.46a5.85 5.85 0 0 0 3.13-.89l28.47-17.8v.01z" fill="#074793"/><path d="M621.158 422.324v16.23l.42-.47c2.09-2.38 5.23-3.89 8.74-3.89a11.91 11.91 0 0 1 4.98 1.1l-9.79-11.04c-1.13-1.29-2.74-1.93-4.35-1.93h0z" fill="#0294e4"/><path d="M637.732 457.256l-16.57-18.7v29.05l16.57-10.35z" fill="#96bcc2"/><path d="M1384.682 320.971c-16.57 12.679-40.267 9.602-53.051-6.887s-9.857-40.206 6.551-53.093l.4-.27c16.647-12.465 40.226-9.203 52.864 7.313s9.621 40.129-6.764 52.937z" fill="url(#J)"/><path d="M1351.118 283.082c10.733-10.204 24.961-15.918 39.77-15.97a37.8 37.8 0 0 0-6.65-6.43c-7.204.445-14.28 2.105-20.93 4.91-6.847 2.939-13.038 7.216-18.21 12.58 2.484.944 4.595 2.667 6.02 4.91zm-18.788 15.262a79.75 79.75 0 0 0-3.7 11.7 34.9 34.9 0 0 0 2.77 4.1c.8 1.03 1.56 1.96 2.45 2.9a80.11 80.11 0 0 1 4.82-15.48 12.32 12.32 0 0 1-6.34-3.22z" fill-opacity=".6" class="AW"/><path d="M1336.709 278.085c-1.575-4.226-2.61-8.634-3.08-13.12a36.37 36.37 0 0 0-4.91 6.47c.503 3.614 1.353 7.17 2.54 10.62 1.4-1.817 3.291-3.194 5.45-3.97z" class="AX Am"/><circle cx="1340.814" cy="289.555" r="12.184" fill="url(#K)"/><path d="M1358.575 311.829a7.9 7.9 0 0 1 2.41-5.67 53.02 53.02 0 0 1-11.29-8.3 12.23 12.23 0 0 1-6.65 3.7 58.47 58.47 0 0 0 6.47 5.71 54.09 54.09 0 0 0 9.15 5.58 7.99 7.99 0 0 1-.09-1.02zm28.113.928a53.54 53.54 0 0 1-12.31-1.42 1.83 1.83 0 0 1 0 .49 7.81 7.81 0 0 1-2.28 5.53 61.08 61.08 0 0 0 15.26 1.07 36.64 36.64 0 0 0 5.31-5.98 51.32 51.32 0 0 1-5.98.31z" class="AX Am"/><circle cx="1366.475" cy="311.824" r="7.944" class="An"/><path d="M1376.246 290.669c.394-1.744 1.349-3.311 2.72-4.46a113.8 113.8 0 0 1-19.9-18.48c-3.424-4.019-6.417-8.386-8.93-13.03-1.666.502-3.29 1.13-4.86 1.88 2.689 5.056 5.907 9.813 9.6 14.19 6.272 7.493 13.45 14.177 21.37 19.9z" fill-opacity=".7" class="AX"/><circle cx="1384.549" cy="292.188" r="8.435" class="An"/><path d="M1398.695 297.858l-1.56-.76-1.34-.72h-.27l-1.16-.93h-.31l-1.38-.89c-.481 1.642-1.486 3.081-2.86 4.1.54.36 1.12.67 1.7.98l.35.23 1.56.84 3.84 2.01c.543-1.619.977-3.273 1.3-4.95l.13.09z" class="AX Am"/><circle cx="1340.814" cy="289.555" r="12.184" fill="url(#K)"/><circle cx="1366.475" cy="311.824" r="7.944" class="An"/><text x="24.22" y="816.29" transform="translate(102.681 -668.242)" class="AS AT AU AV">Service provider initiates <tspan x="9.11" dy="1.2em" class="Aa">action on customer resource</tspan></text><text x="12.8" y="805.49" transform="translate(467.028 -665.992)" class="AS AT AU AV">Azure Resource Manager validates <tspan x="29.17" dy="1.2em" class="Aa">the request and calls Managed </tspan><tspan x="28.44" dy="1.2em" class="Aa">Service Resource Provider (RP)</tspan></text><text x="20.39" y="816.29" transform="translate(896.49 -668.242)" class="AS AT AU AV">Managed Service RP provides <tspan x="61.06" dy="1.2em" class="Aa">precise RBAC access</tspan></text><text x="31.01" y="816.29" transform="translate(1221.88 -668.242)" class="AS AT AU AV">Service provider completes <tspan x="25.51" dy="1.2em" class="Aa">action on customer resource</tspan></text><text x="461.974" y="503.735" class="AS AT AU AY">Tags</text><text x="598.605" y="503.735" class="AS AT AU AY">RBAC</text><text x="709.453" y="503.735" class="AS AT AU AY">ARM templates</text><text x="465.495" y="629.735" class="AS AT AU AY">Locks</text><text x="604.13" y="629.735" class="AS AT AU AY">Policy</text><text x="720.215" y="629.735" class="AS AT AU AY">Activity logs</text><text x="567.365" y="340.602" class="AS AT AU AY">Control plane</text><text x="511.755" y="369.868" fill="#00b0f0" class="AS AU AY">Azure Resource Management</text><g stroke-width="1.5" class="Ab Ai Ap Ag"><path d="M298.125 475.198h86.94"/><path d="M847.125 475.198h77.94"/><path d="M1029.09 576.92v41.51" marker-start="url(#U)"/><path d="M1117.12 475.198h86.94"/></g><text x="22.63" y="811.45" transform="translate(1283.22 -454.492)" class="AS AT AU AV">200+ existing <tspan x="20.43" dy="1.2em" class="Aa">Azure services</tspan></text><path d="M1292.62 394.198h144" stroke-width=".5" class="Ab Ai Ap"/><text x="1333.38" y="486.402" class="AS AT AV">Storage</text><text x="1325.95" y="605.668" class="AS AT AV">Compute</text><text x="1321.87" y="713.668" class="AS AT AV">Networking</text><text x="1310.1" y="816.035" class="AS AT AV">PaaS services</text><text x="41.3" y="810.89" font-size="3em" transform="translate(19.125 -760.492)" class="AS AT AU">Azure delegated resource management creates logical (control plane) <tspan x="141.06" dy="1.2em" class="Aa">access to customer</tspan>’s environment for the service provider</text></svg>